<svg transform="scale(1)" version="1.1" id="_0088_work_chat_1_1_" xmlns="http://www.w3.org/2000/svg" xmlns:xlink="http://www.w3.org/1999/xlink" x="0px" y="0px" viewBox="0 0 500 500" xml:space="preserve" class="show_show__wrapper__graphic__5Waiy "><title>React</title><style type="text/css">
	.st0{fill:#FFFFFF;}
	.st1{fill:#003566;}
	.st2{fill:#4e9edd;}
	.st3{fill:none;stroke:#732A09;stroke-linecap:round;stroke-linejoin:round;}
</style><g id="masking-area"><g id="Layer_107"><path class="st0" d="M445.6,226.9c0,5.2-0.4,10.4-1.2,15.5C435.7,299.8,378.5,344,309.4,344c-75.3,0-136.3-52.4-136.3-117.1
			s61-117.2,136.3-117.2c63.8,0,117.4,37.7,132.2,88.7C444.3,207.6,445.7,217.2,445.6,226.9z"></path><path class="st1" d="M309.4,344.5c-75.4,0-136.8-52.8-136.8-117.6S234,109.2,309.4,109.2c62.9,0,117.5,36.6,132.7,89
			c4.2,14.3,5.2,29.4,2.9,44.2C436,300.6,377.7,344.5,309.4,344.5z M309.4,110.2c-74.9,0-135.8,52.3-135.8,116.7
			s60.9,116.6,135.8,116.6c67.9,0,125.7-43.5,134.6-101.2c0.8-5.1,1.2-10.3,1.2-15.4c0-9.6-1.3-19.1-4-28.3
			C426,146.6,371.8,110.2,309.4,110.2z"></path></g></g><g id="hand"><path class="st2" d="M445.1,226.6c0,5.2-0.4,10.4-1.2,15.5c-9.9,0.7-21.8,1.6-27.7,1.9c-11.1,0.6-13.2-7.8-13.2-7.8l-4.5-25
		c0.5-8.4,10.3-10.3,22.4-11.1c6.1-0.4,13.8-1.3,20-2C443.7,207.4,445.1,217,445.1,226.6z"></path><path class="st0" d="M400.9,209.4c-11.7-2.7-22.6-0.2-28,0s-14.2-4-17.6-1.3s5.7,9.7,11.6,10.6c0,0-12.3,0.8-18.3,3.4
		s-15.4,9.2-14.9,12.4s9.3-0.6,13.2-3.4s12.4-4.7,12.4-4.7c-2.5,3.3-5.2,6.4-8.2,9.3c-5,4.9-5.7,9.7-1.3,10s10.4-9.2,12.4-11
		c2-1.5,4.1-2.7,6.3-3.8c0,0-5.3,8.1-6.1,13.8s2.3,6.9,4.2,4.9s4.7-10.7,7-12.5c1.8-1.2,3.9-2.1,6-2.6c0,0-5.9,7.9-5.3,13.2
		s4,4.4,5.3,0.7c1-2.6,2.1-5.1,3.4-7.6c0,0,5.5-0.7,8.3-3.5c0,0,14.3,5.4,22.7-2.1c0,0,4.2-4.5,4.2-13S406.6,210.3,400.9,209.4z"></path><path class="st1" d="M376.7,252h-0.2c-0.8-0.1-2.2-0.8-2.6-4.1c-0.5-4.2,2.9-9.9,4.5-12.4c-1.6,0.5-3.1,1.2-4.5,2.2
		c-1.2,0.9-2.6,4-3.9,6.8c-1.1,2.4-2.1,4.7-3,5.6c-0.8,1-2.2,1.3-3.4,0.8c-0.8-0.4-2.4-1.7-1.7-6.1s3.7-9.8,5.3-12.4
		c-1.6,0.8-3.2,1.8-4.6,2.9c-0.8,0.8-1.6,1.7-2.3,2.7c-3,3.6-7,8.6-10.5,8.4c-2-0.1-2.9-1.1-3.2-2c-0.8-2.2,0.8-5.6,4.2-8.9
		c2.6-2.6,5-5.3,7.3-8.1c-2.5,0.7-8,2.2-10.9,4.3c-3.1,2.2-10.2,5.6-12.9,4.4c-0.6-0.2-1-0.8-1.1-1.4c-0.5-3.8,9.8-10.6,15.2-13
		c4.3-1.9,11.6-2.8,15.6-3.2c-4.4-1.6-9.1-5.3-9.8-8.1c-0.3-1,0-2,0.8-2.7c2.3-1.9,6.4-0.9,10.7,0.1c2.3,0.6,4.7,1,7.2,1.1
		c1.3,0,2.9-0.2,4.8-0.4c6.1-0.7,14.4-1.6,23.3,0.5c3,0.5,17.8,3.5,17.8,13.4c0,8.6-4.2,13.2-4.4,13.4c-7.9,7.1-20.8,3-22.9,2.3
		c-2.6,2.4-7,3.2-8.1,3.4c-1.2,2.4-2.3,4.8-3.3,7.3C379.4,250.7,378,252,376.7,252z M379.6,234.1c0.2,0,0.3,0.1,0.4,0.2
		c0.1,0.2,0.1,0.4,0,0.6c0,0.1-5.7,7.8-5.2,12.8c0.2,1.9,0.9,3.2,1.7,3.3s1.9-0.8,2.6-2.6c1-2.6,2.1-5.2,3.4-7.7
		c0.1-0.1,0.2-0.2,0.4-0.3c0,0,5.4-0.7,8-3.4c0.1-0.1,0.3-0.2,0.5-0.1c0.1,0,14.1,5.2,22.2-2c0,0,4.1-4.5,4.1-12.6
		c0-9.1-14.1-11.9-17-12.4l0,0c-8.7-2.1-17-1.1-22.9-0.4c-1.9,0.2-3.6,0.4-4.9,0.4c-2.5-0.1-5-0.4-7.4-1.1c-3.9-0.9-8-1.8-9.8-0.3
		c-0.5,0.4-0.7,1.1-0.5,1.6c0.8,2.9,7.3,7.4,11.8,8.1c0.3,0,0.4,0.3,0.4,0.5c0,0.3-0.2,0.5-0.5,0.5c-0.1,0-12.3,0.8-18.1,3.4
		c-6.6,2.9-15,9.3-14.6,11.9c0,0.3,0.2,0.5,0.5,0.6c2,0.9,8.6-2,11.9-4.4c4-2.8,12.2-4.7,12.6-4.8c0.3-0.1,0.5,0.1,0.6,0.3
		c0,0.2,0,0.3-0.1,0.4c-2.5,3.3-5.3,6.4-8.2,9.3c-3,3-4.6,6.1-3.9,7.9c0.4,0.9,1.3,1.4,2.3,1.3c3,0.2,7-4.8,9.6-8
		c0.8-1,1.6-1.9,2.5-2.8c2-1.5,4.1-2.8,6.4-3.9c0.2-0.1,0.5-0.1,0.6,0.1c0.1,0.2,0.1,0.4,0,0.6c0,0.1-5.2,8-6.1,13.6
		c-0.4,2.6,0,4.5,1.2,5.1c0.8,0.3,1.7,0.1,2.2-0.6c0.8-0.8,1.8-3.1,2.9-5.3c1.4-3,2.8-6.2,4.2-7.2c1.9-1.3,4-2.2,6.2-2.7
		L379.6,234.1z"></path><path class="st1" d="M366.9,219.2c-0.2,0-0.4-0.2-0.5-0.4c-0.1-0.3,0.1-0.5,0.4-0.6c0,0,0,0,0,0c3.6-0.7,7.1-1.8,10.4-3.2
		c0.3-0.1,0.5,0,0.7,0.3c0.1,0.3,0,0.5-0.3,0.7c-3.4,1.4-7,2.5-10.6,3.2H366.9z"></path><path class="st1" d="M359.3,227c-0.3,0-0.5-0.2-0.5-0.5c0-0.2,0.1-0.3,0.2-0.4c4.4-2.9,9.3-4.8,14.4-5.8c0.3,0,0.5,0.1,0.6,0.4
		c0,0,0,0,0,0c0,0.3-0.1,0.5-0.4,0.6c0,0,0,0,0,0c-5,0.9-9.7,2.9-14,5.6C359.5,227,359.4,227,359.3,227z"></path><path class="st1" d="M368.5,231.6c-0.1,0-0.2,0-0.3-0.1c-0.2-0.1-0.3-0.5-0.2-0.7c1.4-2.3,5-3.7,12.5-4.8c0.3,0,0.5,0.2,0.6,0.4
		c0,0.3-0.2,0.5-0.4,0.6c-7.1,1-10.5,2.3-11.8,4.3C368.8,231.5,368.7,231.6,368.5,231.6z"></path><path class="st1" d="M379.6,235.1c-0.2,0-0.3-0.1-0.4-0.2c-0.2-0.2-0.1-0.5,0.1-0.7c2.3-1.5,5-2.3,7.8-2.3c0.3,0,0.5,0.2,0.5,0.5
		c0,0.3-0.2,0.5-0.5,0.5c-2.5,0-5,0.7-7.2,2.1C379.8,235,379.7,235.1,379.6,235.1z"></path></g><g id="chatbox-2"><path class="st2" d="M455.2,101v69.2c0,4.5-3.7,8.2-8.2,8.2h-82.2c-7.2,12.8-29,11.4-29,11.4c3.7-0.7,10.2-2.8,12.2-11.4h-50.9
		c-4.5,0-8.2-3.7-8.2-8.2V101c0-4.5,3.7-8.2,8.2-8.2H447C451.6,92.8,455.2,96.5,455.2,101z"></path><path class="st1" d="M338,190.2c-1.2,0-2,0-2.2-0.1c-0.3,0-0.5-0.2-0.5-0.5c0-0.3,0.2-0.5,0.4-0.5c6.2-1.2,10.1-4.6,11.6-10.4
		h-50.3c-4.8,0-8.7-3.9-8.7-8.7V101c0-4.8,3.9-8.6,8.7-8.7H447c4.8,0,8.7,3.9,8.7,8.7v69.2c0,4.8-3.9,8.7-8.7,8.7l0,0h-81.9
		C359.1,189.2,343.8,190.2,338,190.2z M297.1,93.3c-4.2,0-7.7,3.4-7.7,7.7v69.2c0,4.2,3.4,7.7,7.7,7.7h50.9c0.2,0,0.3,0.1,0.4,0.2
		c0.1,0.1,0.1,0.3,0.1,0.4c-1.3,5.3-4.3,8.9-9.1,10.8c6.4-0.2,19.7-1.8,24.9-11.1c0.1-0.2,0.3-0.3,0.4-0.3h82.2
		c4.2,0,7.7-3.4,7.7-7.7V101c0-4.2-3.4-7.7-7.7-7.7L297.1,93.3z"></path><path class="st0" d="M340.5,144.3c-4.8,0-8.7-3.9-8.7-8.7s3.9-8.7,8.7-8.7s8.7,3.9,8.7,8.7C349.2,140.4,345.3,144.3,340.5,144.3z
		 M340.5,127.8c-4.3,0-7.7,3.5-7.7,7.7c0,4.3,3.5,7.7,7.7,7.7c4.3,0,7.7-3.5,7.7-7.7C348.2,131.3,344.8,127.8,340.5,127.8z"></path><path class="st0" d="M372.1,144.3c-4.8,0-8.7-3.9-8.7-8.7s3.9-8.7,8.7-8.7s8.7,3.9,8.7,8.7C380.8,140.4,376.9,144.3,372.1,144.3z
		 M372.1,127.8c-4.3,0-7.7,3.5-7.7,7.7c0,4.3,3.5,7.7,7.7,7.7c4.3,0,7.7-3.5,7.7-7.7C379.8,131.3,376.4,127.8,372.1,127.8z"></path><path class="st0" d="M403.7,144.3c-4.8,0-8.7-3.9-8.7-8.7s3.9-8.7,8.7-8.7s8.7,3.9,8.7,8.7C412.4,140.4,408.5,144.3,403.7,144.3z
		 M403.7,127.8c-4.3,0-7.7,3.5-7.7,7.7c0,4.3,3.5,7.7,7.7,7.7c4.3,0,7.7-3.5,7.7-7.7C411.4,131.3,408,127.8,403.7,127.8z"></path><path class="st1" d="M340.5,144.3c-4.8,0-8.7-3.9-8.7-8.7s3.9-8.7,8.7-8.7s8.7,3.9,8.7,8.7C349.2,140.4,345.3,144.3,340.5,144.3z
		 M340.5,127.8c-4.3,0-7.7,3.5-7.7,7.7c0,4.3,3.5,7.7,7.7,7.7c4.3,0,7.7-3.5,7.7-7.7C348.2,131.3,344.8,127.8,340.5,127.8z"></path><path class="st1" d="M372.1,144.3c-4.8,0-8.7-3.9-8.7-8.7s3.9-8.7,8.7-8.7s8.7,3.9,8.7,8.7C380.8,140.4,376.9,144.3,372.1,144.3z
		 M372.1,127.8c-4.3,0-7.7,3.5-7.7,7.7c0,4.3,3.5,7.7,7.7,7.7c4.3,0,7.7-3.5,7.7-7.7C379.8,131.3,376.4,127.8,372.1,127.8z"></path><path class="st1" d="M403.7,144.3c-4.8,0-8.7-3.9-8.7-8.7s3.9-8.7,8.7-8.7s8.7,3.9,8.7,8.7C412.4,140.4,408.5,144.3,403.7,144.3z
		 M403.7,127.8c-4.3,0-7.7,3.5-7.7,7.7c0,4.3,3.5,7.7,7.7,7.7c4.3,0,7.7-3.5,7.7-7.7C411.4,131.3,408,127.8,403.7,127.8z"></path><path class="st3" d="M340.5,144.3c-4.8,0-8.7-3.9-8.7-8.7s3.9-8.7,8.7-8.7s8.7,3.9,8.7,8.7C349.2,140.4,345.3,144.3,340.5,144.3z
		 M340.5,127.8c-4.3,0-7.7,3.5-7.7,7.7c0,4.3,3.5,7.7,7.7,7.7c4.3,0,7.7-3.5,7.7-7.7C348.2,131.3,344.8,127.8,340.5,127.8z"></path><path class="st3" d="M372.1,144.3c-4.8,0-8.7-3.9-8.7-8.7s3.9-8.7,8.7-8.7s8.7,3.9,8.7,8.7C380.8,140.4,376.9,144.3,372.1,144.3z
		 M372.1,127.8c-4.3,0-7.7,3.5-7.7,7.7c0,4.3,3.5,7.7,7.7,7.7c4.3,0,7.7-3.5,7.7-7.7C379.8,131.3,376.4,127.8,372.1,127.8z"></path><path class="st3" d="M403.7,144.3c-4.8,0-8.7-3.9-8.7-8.7s3.9-8.7,8.7-8.7s8.7,3.9,8.7,8.7C412.4,140.4,408.5,144.3,403.7,144.3z
		 M403.7,127.8c-4.3,0-7.7,3.5-7.7,7.7c0,4.3,3.5,7.7,7.7,7.7c4.3,0,7.7-3.5,7.7-7.7C411.4,131.3,408,127.8,403.7,127.8z"></path></g><g id="laptop-2-2"><path class="st0" d="M417.6,276.1h-70.2l0,0v-10.3l0,0h70.2c1.2,0,2.1,0.9,2.1,2.1v6.1C419.7,275.2,418.8,276.1,417.6,276.1
		C417.6,276.1,417.6,276.1,417.6,276.1z"></path><path class="st1" d="M417.6,276.6h-70.2c-0.3,0-0.5-0.2-0.5-0.5v-10.3c0-0.3,0.2-0.5,0.5-0.5h70.2c1.4,0,2.6,1.2,2.6,2.6v6.1
		C420.2,275.4,419,276.6,417.6,276.6z M347.9,275.6h69.7c0.9,0,1.6-0.7,1.6-1.6v-6.1c0-0.9-0.7-1.6-1.6-1.6h-69.7V275.6z"></path><path class="st0" d="M347.4,265.8H211.7L180.6,180c-1.1-3,0.5-6.3,3.5-7.4c0.6-0.2,1.3-0.3,1.9-0.3h123.5c2.4,0,4.6,1.5,5.4,3.8
		L347.4,265.8z"></path><path class="st1" d="M347.4,266.3H211.7c-0.2,0-0.4-0.1-0.5-0.3l-31.1-85.8c-1.2-3.2,0.5-6.8,3.7-8c0.7-0.2,1.4-0.4,2.1-0.4h123.5
		c2.6,0,5,1.7,5.9,4.1l32.5,89.8c0.1,0.2,0,0.3-0.1,0.5C347.7,266.2,347.6,266.3,347.4,266.3z M212.1,265.3h134.6l-32.3-89.1
		c-0.8-2.1-2.7-3.5-4.9-3.5H186c-2.9,0-5.2,2.4-5.2,5.3c0,0.6,0.1,1.2,0.3,1.7L212.1,265.3z"></path><path class="st2" d="M211.7,265.8h135.7l0,0v10.3l0,0H213.8c-1.2,0-2.1-0.9-2.1-2.1V265.8L211.7,265.8z"></path><path class="st1" d="M347.4,276.6H213.8c-1.4,0-2.6-1.2-2.6-2.6v-8.2c0-0.3,0.2-0.5,0.5-0.5h135.7c0.3,0,0.5,0.2,0.5,0.5v10.3
		C347.9,276.4,347.7,276.6,347.4,276.6L347.4,276.6z M212.2,266.3v7.7c0,0.9,0.7,1.6,1.6,1.6h133.1v-9.3L212.2,266.3z"></path></g><g id="laptop-1"><path class="st2" d="M42.2,351.3h70.2l0,0v10.3l0,0H42.2c-1.2,0-2.1-0.9-2.1-2.1v-6.1C40.1,352.2,41.1,351.3,42.2,351.3z"></path><path class="st1" d="M112.4,362.1H42.2c-1.4,0-2.6-1.2-2.6-2.6v-6.1c0-1.4,1.2-2.6,2.6-2.6h70.2c0.3,0,0.5,0.2,0.5,0.5v10.3
		C112.9,361.9,112.7,362.1,112.4,362.1z M42.2,351.8c-0.9,0-1.6,0.7-1.6,1.6c0,0,0,0,0,0v6.1c0,0.9,0.7,1.6,1.6,1.6h69.7v-9.3H42.2z
		"></path><path class="st2" d="M112.4,351.3h135.7l31.1-85.8c1.1-3-0.5-6.3-3.5-7.4c-0.6-0.2-1.3-0.3-1.9-0.3H150.4c-2.4,0-4.6,1.5-5.4,3.8
		L112.4,351.3z"></path><path class="st1" d="M248.1,351.8H112.4c-0.2,0-0.3-0.1-0.4-0.2c-0.1-0.1-0.1-0.3-0.1-0.5l32.5-89.8c0.9-2.5,3.3-4.1,5.9-4.1h123.5
		c3.5,0,6.3,2.8,6.3,6.2c0,0.7-0.1,1.4-0.4,2.1l-31.1,85.8C248.5,351.7,248.3,351.8,248.1,351.8z M113.1,350.8h134.7l31-85.5
		c1-2.7-0.5-5.7-3.2-6.7c-0.6-0.2-1.1-0.3-1.7-0.3H150.4c-2.2,0-4.2,1.4-4.9,3.5L113.1,350.8z"></path><path class="st0" d="M246,361.6H112.4l0,0v-10.3l0,0h135.7l0,0v8.2C248.1,360.7,247.2,361.6,246,361.6z"></path><path class="st1" d="M246,362.1H112.4c-0.3,0-0.5-0.2-0.5-0.5v-10.3c0-0.3,0.2-0.5,0.5-0.5h135.7c0.3,0,0.5,0.2,0.5,0.5v8.2
		C248.6,360.9,247.4,362.1,246,362.1z M112.9,361.1H246c0.9,0,1.6-0.7,1.6-1.6v-7.7H112.9L112.9,361.1z"></path></g><g id="chatbox-1"><path class="st0" d="M111.2,269.7c1.1,4,2.9,7.7,5.3,11.1c0.5,0.8,0.3,1.8-0.4,2.3c-0.4,0.3-1,0.4-1.5,0.2
		c-6.7-2.2-18.2-6.7-23.2-13.3c-32.9-4.9-55.6-35.5-50.7-68.4s35.5-55.6,68.4-50.7s55.6,35.5,50.7,68.4
		C156,244.8,136.5,265.1,111.2,269.7z"></path><path class="st1" d="M115.1,283.9c-0.2,0-0.5,0-0.7-0.1c-6.5-2.1-18.2-6.7-23.3-13.3c-30.8-4.6-53-31.8-51.4-62.9
		c1.4-30.9,26.8-56.3,57.7-57.7c33.5-1.6,61.9,24.2,63.5,57.7c1.5,30.2-19.5,56.8-49.2,62.5c1.1,3.7,2.8,7.2,5.1,10.4
		c0.7,1,0.4,2.3-0.6,3C116,283.8,115.5,283.9,115.1,283.9z M100.3,150.9c-0.9,0-1.9,0-2.8,0.1c-30.5,1.4-55.4,26.3-56.8,56.8
		c-1.5,30.6,20.4,57.4,50.8,61.9c0.1,0,0.2,0.1,0.3,0.2c4.9,6.5,16.4,11,22.9,13.1c0.6,0.2,1.3-0.1,1.5-0.8c0.1-0.3,0.1-0.7-0.1-1
		c-2.4-3.4-4.2-7.2-5.3-11.3c0-0.1,0-0.3,0.1-0.4c0.1-0.1,0.2-0.2,0.3-0.2c32.4-5.9,53.9-37.1,47.9-69.5
		C153.8,171.4,129.1,150.8,100.3,150.9z"></path><path class="st2" d="M102.2,195.8H58.1c-0.3,0-0.5-0.2-0.5-0.5c0-0.3,0.2-0.5,0.5-0.5h44.1c0.3,0,0.5,0.2,0.5,0.5
		C102.7,195.6,102.5,195.8,102.2,195.8z"></path><path class="st2" d="M138.1,207.6h-80c-0.3,0-0.5-0.2-0.5-0.5c0-0.3,0.2-0.5,0.5-0.5h80c0.3,0,0.5,0.2,0.5,0.5
		S138.4,207.6,138.1,207.6z"></path><path class="st2" d="M138.1,219.4h-80c-0.3,0-0.5-0.2-0.5-0.5c0-0.3,0.2-0.5,0.5-0.5h80c0.3,0,0.5,0.2,0.5,0.5
		S138.4,219.4,138.1,219.4z"></path><path class="st2" d="M138.1,231.2h-80c-0.3,0-0.5-0.2-0.5-0.5c0-0.3,0.2-0.5,0.5-0.5h80c0.3,0,0.5,0.2,0.5,0.5
		S138.4,231.2,138.1,231.2z"></path></g></svg>