<svg transform="scale(1)" version="1.1" id="_x30_238_x5F_Data_x5F_Center" xmlns="http://www.w3.org/2000/svg" xmlns:xlink="http://www.w3.org/1999/xlink" x="0px" y="0px" viewBox="0 0 500 500" xml:space="preserve" class="show_show__wrapper__graphic__5Waiy "><title>React</title><style type="text/css">
	.st0{fill:#FFFFFF;}
	.st1{fill:#003566;}
	.st2{fill:#4e9edd;}
</style><g id="server"><path class="st0" d="M326.1,116.4h128.6c4.2,0,7.6,3.4,7.6,7.7v171.9c0,4.2-3.4,7.6-7.6,7.6H326.1c-4.2,0-7.6-3.4-7.6-7.6V124.1
		C318.4,119.8,321.8,116.4,326.1,116.4z"></path><path class="st1" d="M454.6,304.1H326.1c-4.5,0-8.1-3.6-8.2-8.1V124.1c0-4.5,3.7-8.1,8.2-8.2h128.6c4.5,0,8.1,3.7,8.1,8.2v171.9
		C462.8,300.4,459.1,304.1,454.6,304.1z M326.1,116.9c-4,0-7.2,3.2-7.2,7.2v171.9c0,4,3.2,7.1,7.2,7.1h128.6c3.9,0,7.1-3.2,7.1-7.1
		V124.1c0-3.9-3.2-7.1-7.1-7.2H326.1z"></path><path class="st1" d="M445.9,166.8H334.8c-3.1,0-5.6-2.5-5.6-5.6v-25.9c0-3.1,2.5-5.6,5.6-5.6h111.1c3.1,0,5.6,2.5,5.6,5.6v25.9
		C451.5,164.3,449,166.8,445.9,166.8z M334.8,130.6c-2.6,0-4.6,2.1-4.6,4.6c0,0,0,0,0,0v25.9c0,2.6,2.1,4.6,4.6,4.6c0,0,0,0,0,0
		h111.1c2.6,0,4.6-2.1,4.6-4.6v-25.9c0-2.6-2.1-4.6-4.6-4.6H334.8z"></path><rect class="st2" x="336.2" y="135.1" width="5.6" height="5.6"></rect><path class="st1" d="M341.8,141.2h-5.6c-0.3,0-0.5-0.2-0.5-0.5v-5.6c0-0.3,0.2-0.5,0.5-0.5h5.6c0.3,0,0.5,0.2,0.5,0.5v5.6
		C342.3,141,342.1,141.2,341.8,141.2z M336.7,140.2h4.6v-4.6h-4.6V140.2z"></path><rect class="st2" x="336.2" y="145.4" width="5.6" height="5.6"></rect><path class="st1" d="M341.8,151.6h-5.6c-0.3,0-0.5-0.2-0.5-0.5v-5.6c0-0.3,0.2-0.5,0.5-0.5h5.6c0.3,0,0.5,0.2,0.5,0.5v5.6
		C342.3,151.3,342.1,151.6,341.8,151.6z M336.7,150.6h4.6v-4.6h-4.6V150.6z"></path><rect class="st2" x="336.2" y="155.7" width="5.6" height="5.6"></rect><path class="st1" d="M341.8,161.9h-5.6c-0.3,0-0.5-0.2-0.5-0.5v-5.6c0-0.3,0.2-0.5,0.5-0.5h5.6c0.3,0,0.5,0.2,0.5,0.5v5.6
		C342.3,161.6,342.1,161.9,341.8,161.9z M336.7,160.9h4.6v-4.6h-4.6V160.9z"></path><path class="st1" d="M438.3,145.9h-33.9c-1.2,0-2.3-1-2.3-2.3v-1.2c0-1.2,1-2.3,2.3-2.3l0,0h33.9c1.2,0,2.2,1,2.2,2.3v1.2
		C440.5,144.9,439.5,145.9,438.3,145.9z M404.4,141.2c-0.7,0-1.3,0.6-1.3,1.3v1.2c0,0.7,0.6,1.3,1.3,1.3h33.9c0.7,0,1.3-0.6,1.2-1.3
		v-1.2c0-0.7-0.6-1.3-1.2-1.3H404.4z"></path><path class="st1" d="M438.3,156.2h-33.9c-1.2,0-2.3-1-2.3-2.2v-1.2c0-1.2,1-2.3,2.3-2.3l0,0h33.9c1.2,0,2.2,1,2.2,2.3v1.2
		C440.5,155.2,439.5,156.2,438.3,156.2z M404.4,151.6c-0.7,0-1.3,0.6-1.3,1.3l0,0v1.2c0,0.7,0.6,1.3,1.3,1.2h33.9
		c0.7,0,1.2-0.6,1.2-1.2v-1.2c0-0.7-0.5-1.3-1.2-1.3c0,0,0,0,0,0L404.4,151.6z"></path><path class="st1" d="M445.9,208H334.8c-3.1,0-5.6-2.5-5.6-5.6v-25.9c0-3.1,2.5-5.6,5.6-5.6h111.1c3.1,0,5.6,2.5,5.6,5.6v25.9
		C451.6,205.5,449,208,445.9,208z M334.8,171.8c-2.6,0-4.6,2.1-4.6,4.6c0,0,0,0,0,0v25.9c0,2.6,2.1,4.6,4.6,4.6c0,0,0,0,0,0h111.1
		c2.6,0,4.6-2.1,4.6-4.6v-25.9c0-2.6-2.1-4.6-4.6-4.6H334.8z"></path><rect class="st2" x="336.2" y="176.2" width="5.6" height="5.6"></rect><path class="st1" d="M341.8,182.4h-5.6c-0.3,0-0.5-0.2-0.5-0.5v-5.6c0-0.3,0.2-0.5,0.5-0.5h5.6c0.3,0,0.5,0.2,0.5,0.5v5.6
		C342.3,182.2,342.1,182.4,341.8,182.4z M336.7,181.4h4.6v-4.6h-4.6V181.4z"></path><rect class="st2" x="336.2" y="186.6" width="5.6" height="5.6"></rect><path class="st1" d="M341.8,192.7h-5.6c-0.3,0-0.5-0.2-0.5-0.5v-5.6c0-0.3,0.2-0.5,0.5-0.5h5.6c0.3,0,0.5,0.2,0.5,0.5v5.6
		C342.3,192.5,342.1,192.7,341.8,192.7z M336.7,191.7h4.6v-4.6h-4.6V191.7z"></path><rect class="st2" x="336.2" y="196.9" width="5.6" height="5.6"></rect><path class="st1" d="M341.8,203h-5.6c-0.3,0-0.5-0.2-0.5-0.5v-5.6c0-0.3,0.2-0.5,0.5-0.5h5.6c0.3,0,0.5,0.2,0.5,0.5v5.6
		C342.3,202.8,342.1,203,341.8,203z M336.7,202h4.6v-4.6h-4.6V202z"></path><path class="st1" d="M438.3,187.1h-33.9c-1.2,0-2.3-1-2.3-2.3l0,0v-1.2c0-1.2,1-2.3,2.3-2.3h33.9c1.2,0,2.2,1,2.2,2.3v1.2
		C440.5,186.1,439.5,187.1,438.3,187.1z M404.4,182.4c-0.7,0-1.3,0.6-1.3,1.3v1.2c0,0.7,0.6,1.3,1.3,1.3h33.9c0.7,0,1.3-0.6,1.2-1.3
		v-1.2c0-0.7-0.6-1.3-1.2-1.3H404.4z"></path><path class="st1" d="M438.3,197.4h-33.9c-1.2,0-2.3-1-2.3-2.3V194c0-1.2,1-2.3,2.3-2.3l0,0h33.9c1.2,0,2.2,1,2.2,2.3v1.2
		C440.5,196.4,439.5,197.4,438.3,197.4z M404.4,192.7c-0.7,0-1.3,0.6-1.3,1.3l0,0v1.2c0,0.7,0.6,1.3,1.3,1.3h33.9
		c0.7,0,1.3-0.6,1.2-1.3V194c0-0.7-0.5-1.3-1.2-1.3c0,0,0,0,0,0L404.4,192.7z"></path><path class="st1" d="M445.9,249.2H334.8c-3.1,0-5.6-2.5-5.6-5.6v-25.9c0-3.1,2.5-5.6,5.6-5.6h111.1c3.1,0,5.6,2.5,5.6,5.6v25.9
		C451.5,246.6,449,249.2,445.9,249.2z M334.8,213c-2.6,0-4.6,2.1-4.6,4.6c0,0,0,0,0,0v25.9c0,2.6,2.1,4.6,4.6,4.6l0,0h111.1
		c2.6,0,4.6-2.1,4.6-4.6v-25.9c0-2.6-2.1-4.6-4.6-4.6L334.8,213z"></path><rect class="st2" x="336.2" y="217.4" width="5.6" height="5.6"></rect><path class="st1" d="M341.8,223.6h-5.6c-0.3,0-0.5-0.2-0.5-0.5v-5.6c0-0.3,0.2-0.5,0.5-0.5h5.6c0.3,0,0.5,0.2,0.5,0.5v5.6
		C342.3,223.3,342.1,223.6,341.8,223.6z M336.7,222.6h4.6v-4.6h-4.6V222.6z"></path><rect class="st2" x="336.2" y="227.8" width="5.6" height="5.6"></rect><path class="st1" d="M341.8,233.9h-5.6c-0.3,0-0.5-0.2-0.5-0.5v-5.6c0-0.3,0.2-0.5,0.5-0.5h5.6c0.3,0,0.5,0.2,0.5,0.5v5.6
		C342.3,233.7,342.1,233.9,341.8,233.9z M336.7,232.9h4.6v-4.6h-4.6V232.9z"></path><rect class="st2" x="336.2" y="238.1" width="5.6" height="5.6"></rect><path class="st1" d="M341.8,244.2h-5.6c-0.3,0-0.5-0.2-0.5-0.5v-5.6c0-0.3,0.2-0.5,0.5-0.5h5.6c0.3,0,0.5,0.2,0.5,0.5v5.6
		C342.3,244,342.1,244.2,341.8,244.2z M336.7,243.2h4.6v-4.6h-4.6V243.2z"></path><path class="st1" d="M438.3,228.2h-33.9c-1.2,0-2.3-1-2.3-2.3l0,0v-1.2c0-1.2,1-2.3,2.3-2.3h33.9c1.2,0,2.2,1,2.2,2.3v1.2
		C440.5,227.2,439.5,228.2,438.3,228.2z M404.4,223.6c-0.7,0-1.3,0.6-1.3,1.3v1.2c0,0.7,0.6,1.3,1.3,1.3l0,0h33.9
		c0.7,0,1.3-0.6,1.3-1.2c0,0,0,0,0,0v-1.2c0-0.7-0.6-1.3-1.2-1.3L404.4,223.6z"></path><path class="st1" d="M438.3,238.6h-33.9c-1.2,0-2.3-1-2.3-2.3v-1.2c0-1.2,1-2.3,2.3-2.3l0,0h33.9c1.2,0,2.2,1,2.2,2.3v1.2
		C440.5,237.6,439.5,238.6,438.3,238.6z M404.4,233.9c-0.7,0-1.3,0.6-1.3,1.3v1.2c0,0.7,0.6,1.3,1.3,1.3h33.9c0.7,0,1.3-0.6,1.2-1.3
		v-1.2c0-0.7-0.6-1.3-1.2-1.3H404.4z"></path><path class="st1" d="M445.9,290.3H334.8c-3.1,0-5.6-2.5-5.6-5.6v-25.9c0-3.1,2.5-5.6,5.6-5.6l0,0h111.1c3.1,0,5.6,2.5,5.6,5.6v25.9
		C451.5,287.8,449,290.3,445.9,290.3z M334.8,254.2c-2.6,0-4.6,2.1-4.6,4.6l0,0v25.9c0,2.6,2.1,4.6,4.6,4.6l0,0h111.1
		c2.6,0,4.6-2.1,4.6-4.6v-25.9c0-2.6-2.1-4.6-4.6-4.6l0,0H334.8z"></path><rect class="st2" x="336.2" y="258.6" width="5.6" height="5.6"></rect><path class="st1" d="M341.8,264.7h-5.6c-0.3,0-0.5-0.2-0.5-0.5v-5.6c0-0.3,0.2-0.5,0.5-0.5h5.6c0.3,0,0.5,0.2,0.5,0.5v5.6
		C342.3,264.5,342.1,264.7,341.8,264.7z M336.7,263.7h4.6v-4.6h-4.6V263.7z"></path><rect class="st2" x="336.2" y="268.9" width="5.6" height="5.6"></rect><path class="st1" d="M341.8,275.1h-5.6c-0.3,0-0.5-0.2-0.5-0.5v-5.6c0-0.3,0.2-0.5,0.5-0.5h5.6c0.3,0,0.5,0.2,0.5,0.5v5.6
		C342.3,274.8,342.1,275.1,341.8,275.1z M336.7,274.1h4.6v-4.6h-4.6V274.1z"></path><rect class="st2" x="336.2" y="279.2" width="5.6" height="5.6"></rect><path class="st1" d="M341.8,285.4h-5.6c-0.3,0-0.5-0.2-0.5-0.5v-5.6c0-0.3,0.2-0.5,0.5-0.5h5.6c0.3,0,0.5,0.2,0.5,0.5v5.6
		C342.3,285.2,342.1,285.4,341.8,285.4z M336.7,284.4h4.6v-4.6h-4.6V284.4z"></path><path class="st1" d="M438.3,269.4h-33.9c-1.2,0-2.3-1-2.3-2.3c0,0,0,0,0,0V266c0-1.2,1-2.3,2.3-2.2h33.9c1.2,0,2.2,1,2.2,2.2l0,0
		v1.2C440.5,268.4,439.5,269.4,438.3,269.4z M404.4,264.7c-0.7,0-1.3,0.6-1.3,1.2v1.2c0,0.7,0.6,1.3,1.3,1.3c0,0,0,0,0,0h33.9
		c0.7,0,1.3-0.6,1.3-1.2c0,0,0,0,0,0V266c0-0.7-0.6-1.2-1.2-1.2L404.4,264.7z"></path><path class="st1" d="M438.3,279.8h-33.9c-1.2,0-2.3-1-2.3-2.3c0,0,0,0,0,0v-1.2c0-1.2,1-2.3,2.3-2.3h33.9c1.2,0,2.3,1,2.2,2.3v1.2
		C440.5,278.7,439.5,279.7,438.3,279.8z M404.4,275.1c-0.7,0-1.3,0.6-1.3,1.3v1.2c0,0.7,0.6,1.3,1.3,1.3h33.9c0.7,0,1.3-0.6,1.2-1.3
		v-1.2c0-0.7-0.6-1.3-1.2-1.3H404.4z"></path><path class="st0" d="M120.9,116.4h128.6c4.2,0,7.6,3.4,7.6,7.7v171.9c0,4.2-3.4,7.6-7.6,7.6H120.9c-4.2,0-7.7-3.4-7.7-7.6V124.1
		C113.2,119.8,116.7,116.4,120.9,116.4z"></path><path class="st1" d="M249.5,304.1H120.9c-4.5,0-8.1-3.7-8.2-8.1V124.1c0-4.5,3.7-8.1,8.2-8.2h128.6c4.5,0,8.1,3.7,8.2,8.2v171.9
		C257.6,300.4,254,304.1,249.5,304.1z M120.9,116.9c-3.9,0-7.1,3.2-7.2,7.2v171.9c0,3.9,3.2,7.1,7.2,7.1h128.6
		c3.9,0,7.1-3.2,7.2-7.1V124.1c0-3.9-3.2-7.1-7.1-7.2H120.9z"></path><path class="st1" d="M240.7,166.8H129.6c-3.1,0-5.6-2.5-5.6-5.6v-25.9c0-3.1,2.5-5.6,5.6-5.6h111.1c3.1,0,5.6,2.5,5.6,5.6v25.9
		C246.4,164.3,243.8,166.8,240.7,166.8z M129.6,130.6c-2.6,0-4.6,2.1-4.6,4.6v25.9c0,2.6,2.1,4.6,4.6,4.6h111.1
		c2.6,0,4.6-2.1,4.6-4.6v-25.9c0-2.6-2.1-4.6-4.6-4.6H129.6z"></path><rect class="st2" x="131" y="135.1" width="5.6" height="5.6"></rect><path class="st1" d="M136.6,141.2H131c-0.3,0-0.5-0.2-0.5-0.5v-5.6c0-0.3,0.2-0.5,0.5-0.5h5.6c0.3,0,0.5,0.2,0.5,0.5v5.6
		C137.1,141,136.9,141.2,136.6,141.2C136.6,141.2,136.6,141.2,136.6,141.2z M131.5,140.2h4.6v-4.6h-4.6V140.2z"></path><rect class="st2" x="131" y="145.4" width="5.6" height="5.6"></rect><path class="st1" d="M136.6,151.6H131c-0.3,0-0.5-0.2-0.5-0.5v-5.6c0-0.3,0.2-0.5,0.5-0.5h5.6c0.3,0,0.5,0.2,0.5,0.5v5.6
		C137.1,151.3,136.9,151.6,136.6,151.6C136.6,151.6,136.6,151.6,136.6,151.6z M131.5,150.6h4.6v-4.6h-4.6V150.6z"></path><rect class="st2" x="131" y="155.7" width="5.6" height="5.6"></rect><path class="st1" d="M136.6,161.9H131c-0.3,0-0.5-0.2-0.5-0.5v-5.6c0-0.3,0.2-0.5,0.5-0.5h5.6c0.3,0,0.5,0.2,0.5,0.5v5.6
		C137.1,161.6,136.9,161.9,136.6,161.9C136.6,161.9,136.6,161.9,136.6,161.9z M131.5,160.9h4.6v-4.6h-4.6V160.9z"></path><path class="st1" d="M233.1,145.9h-33.9c-1.2,0-2.3-1-2.3-2.3v-1.2c0-1.2,1-2.3,2.3-2.3h33.9c1.2,0,2.3,1,2.3,2.3v1.2
		C235.4,144.9,234.3,145.9,233.1,145.9z M199.2,141.2c-0.7,0-1.3,0.6-1.3,1.3v1.2c0,0.7,0.6,1.3,1.3,1.3h33.9c0.7,0,1.3-0.6,1.3-1.3
		v-1.2c0-0.7-0.6-1.3-1.3-1.3H199.2z"></path><path class="st1" d="M233.1,156.2h-33.9c-1.2,0-2.2-1-2.2-2.2v-1.2c0-1.2,1-2.3,2.3-2.3h33.8c1.2,0,2.3,1,2.3,2.3v1.2
		C235.3,155.2,234.3,156.2,233.1,156.2z M199.2,151.6c-0.7,0-1.3,0.5-1.3,1.2c0,0,0,0,0,0v1.2c0,0.7,0.6,1.3,1.2,1.3c0,0,0,0,0,0
		h33.9c0.7,0,1.3-0.5,1.3-1.2c0,0,0,0,0,0v-1.2c0-0.7-0.5-1.3-1.2-1.3c0,0,0,0,0,0L199.2,151.6z"></path><path class="st1" d="M240.7,208H129.6c-3.1,0-5.6-2.5-5.6-5.6v-25.9c0-3.1,2.5-5.6,5.6-5.6h111.1c3.1,0,5.6,2.5,5.6,5.6v25.9
		C246.4,205.5,243.8,208,240.7,208L240.7,208z M129.6,171.8c-2.6,0-4.6,2.1-4.6,4.6v25.9c0,2.6,2.1,4.6,4.6,4.6h111.1
		c2.6,0,4.6-2.1,4.6-4.6v-25.9c0-2.6-2.1-4.6-4.6-4.6H129.6z"></path><rect class="st2" x="131" y="176.2" width="5.6" height="5.6"></rect><path class="st1" d="M136.6,182.4H131c-0.3,0-0.5-0.2-0.5-0.5v-5.6c0-0.3,0.2-0.5,0.5-0.5h5.6c0.3,0,0.5,0.2,0.5,0.5v5.6
		C137.1,182.2,136.9,182.4,136.6,182.4C136.6,182.4,136.6,182.4,136.6,182.4z M131.5,181.4h4.6v-4.6h-4.6V181.4z"></path><rect class="st2" x="131" y="186.6" width="5.6" height="5.6"></rect><path class="st1" d="M136.6,192.7H131c-0.3,0-0.5-0.2-0.5-0.5v-5.6c0-0.3,0.2-0.5,0.5-0.5h5.6c0.3,0,0.5,0.2,0.5,0.5v5.6
		C137.1,192.5,136.9,192.7,136.6,192.7C136.6,192.7,136.6,192.7,136.6,192.7z M131.5,191.7h4.6v-4.6h-4.6V191.7z"></path><rect class="st2" x="131" y="196.9" width="5.6" height="5.6"></rect><path class="st1" d="M136.6,203H131c-0.3,0-0.5-0.2-0.5-0.5v-5.6c0-0.3,0.2-0.5,0.5-0.5h5.6c0.3,0,0.5,0.2,0.5,0.5v5.6
		C137.1,202.8,136.9,203,136.6,203C136.6,203,136.6,203,136.6,203z M131.5,202h4.6v-4.6h-4.6V202z"></path><path class="st1" d="M233.1,187.1h-33.9c-1.2,0-2.3-1-2.3-2.3v-1.2c0-1.2,1-2.3,2.3-2.3h33.9c1.2,0,2.3,1,2.3,2.3v1.2
		C235.4,186.1,234.3,187.1,233.1,187.1z M199.2,182.4c-0.7,0-1.3,0.6-1.3,1.3v1.2c0,0.7,0.6,1.3,1.3,1.3h33.9c0.7,0,1.3-0.6,1.3-1.3
		v-1.2c0-0.7-0.6-1.3-1.3-1.3H199.2z"></path><path class="st1" d="M233.1,197.4h-33.9c-1.2,0-2.3-1-2.3-2.3V194c0-1.2,1-2.3,2.3-2.3h33.9c1.2,0,2.3,1,2.3,2.3v1.2
		C235.3,196.4,234.3,197.4,233.1,197.4z M199.2,192.7c-0.7,0-1.2,0.6-1.2,1.3c0,0,0,0,0,0v1.2c0,0.7,0.6,1.3,1.3,1.3h33.8
		c0.7,0,1.3-0.6,1.3-1.3V194c0-0.7-0.5-1.3-1.2-1.3c0,0,0,0,0,0L199.2,192.7z"></path><path class="st1" d="M240.7,249.2H129.6c-3.1,0-5.6-2.5-5.6-5.6v-25.9c0-3.1,2.5-5.6,5.6-5.6h111.1c3.1,0,5.6,2.5,5.6,5.6v25.9
		C246.4,246.6,243.8,249.2,240.7,249.2z M129.6,213c-2.6,0-4.6,2.1-4.6,4.6v25.9c0,2.6,2.1,4.6,4.6,4.6h111.1c2.6,0,4.6-2.1,4.6-4.6
		v-25.9c0-2.6-2.1-4.6-4.6-4.6L129.6,213z"></path><rect class="st2" x="131" y="217.4" width="5.6" height="5.6"></rect><path class="st1" d="M136.6,223.6H131c-0.3,0-0.5-0.2-0.5-0.5v-5.6c0-0.3,0.2-0.5,0.5-0.5h5.6c0.3,0,0.5,0.2,0.5,0.5v5.6
		C137.1,223.3,136.9,223.6,136.6,223.6C136.6,223.6,136.6,223.6,136.6,223.6z M131.5,222.6h4.6v-4.6h-4.6V222.6z"></path><rect class="st2" x="131" y="227.8" width="5.6" height="5.6"></rect><path class="st1" d="M136.6,233.9H131c-0.3,0-0.5-0.2-0.5-0.5v-5.6c0-0.3,0.2-0.5,0.5-0.5h5.6c0.3,0,0.5,0.2,0.5,0.5v5.6
		C137.1,233.7,136.9,233.9,136.6,233.9C136.6,233.9,136.6,233.9,136.6,233.9z M131.5,232.9h4.6v-4.6h-4.6V232.9z"></path><rect class="st2" x="131" y="238.1" width="5.6" height="5.6"></rect><path class="st1" d="M136.6,244.2H131c-0.3,0-0.5-0.2-0.5-0.5v-5.6c0-0.3,0.2-0.5,0.5-0.5h5.6c0.3,0,0.5,0.2,0.5,0.5v5.6
		C137.1,244,136.9,244.2,136.6,244.2C136.6,244.2,136.6,244.2,136.6,244.2z M131.5,243.2h4.6v-4.6h-4.6V243.2z"></path><path class="st1" d="M233.1,228.2h-33.9c-1.2,0-2.2-1-2.2-2.2v-1.2c0-1.2,1-2.3,2.3-2.3h33.8c1.2,0,2.3,1,2.3,2.3v1.2
		C235.4,227.2,234.3,228.3,233.1,228.2z M199.2,223.6c-0.7,0-1.3,0.6-1.3,1.3v1.2c0,0.7,0.5,1.3,1.2,1.3c0,0,0,0,0,0h33.9
		c0.7,0,1.3-0.5,1.3-1.2c0,0,0,0,0,0v-1.2c0-0.7-0.6-1.3-1.3-1.3L199.2,223.6z"></path><path class="st1" d="M233.1,238.6h-33.9c-1.2,0-2.3-1-2.3-2.3v-1.2c0-1.2,1-2.3,2.3-2.3h33.9c1.2,0,2.3,1,2.3,2.3v1.2
		C235.4,237.6,234.3,238.6,233.1,238.6z M199.2,233.9c-0.7,0-1.3,0.6-1.3,1.3v1.2c0,0.7,0.6,1.3,1.3,1.3h33.9c0.7,0,1.3-0.6,1.3-1.3
		v-1.2c0-0.7-0.6-1.3-1.3-1.3H199.2z"></path><path class="st1" d="M240.7,290.3H129.6c-3.1,0-5.6-2.5-5.6-5.6v-25.9c0-3.1,2.5-5.6,5.6-5.6h111.1c3.1,0,5.6,2.5,5.6,5.6v25.9
		C246.4,287.8,243.8,290.3,240.7,290.3z M129.6,254.2c-2.6,0-4.6,2.1-4.6,4.6l0,0v25.9c0,2.6,2.1,4.6,4.6,4.6h111.1
		c2.6,0,4.6-2.1,4.6-4.6v-25.9c0-2.6-2.1-4.6-4.6-4.6c0,0,0,0,0,0H129.6z"></path><rect class="st2" x="131" y="258.6" width="5.6" height="5.6"></rect><path class="st1" d="M136.6,264.7H131c-0.3,0-0.5-0.2-0.5-0.5v-5.6c0-0.3,0.2-0.5,0.5-0.5h5.6c0.3,0,0.5,0.2,0.5,0.5v5.6
		C137.1,264.5,136.9,264.7,136.6,264.7C136.6,264.7,136.6,264.7,136.6,264.7z M131.5,263.7h4.6v-4.6h-4.6V263.7z"></path><rect class="st2" x="131" y="268.9" width="5.6" height="5.6"></rect><path class="st1" d="M136.6,275.1H131c-0.3,0-0.5-0.2-0.5-0.5v-5.6c0-0.3,0.2-0.5,0.5-0.5h5.6c0.3,0,0.5,0.2,0.5,0.5v5.6
		C137.1,274.8,136.9,275.1,136.6,275.1C136.6,275.1,136.6,275.1,136.6,275.1z M131.5,274.1h4.6v-4.6h-4.6V274.1z"></path><rect class="st2" x="131" y="279.2" width="5.6" height="5.6"></rect><path class="st1" d="M136.6,285.4H131c-0.3,0-0.5-0.2-0.5-0.5v-5.6c0-0.3,0.2-0.5,0.5-0.5h5.6c0.3,0,0.5,0.2,0.5,0.5v5.6
		C137.1,285.2,136.9,285.4,136.6,285.4C136.6,285.4,136.6,285.4,136.6,285.4z M131.5,284.4h4.6v-4.6h-4.6V284.4z"></path><path class="st1" d="M233.1,269.4h-33.9c-1.2,0-2.3-1-2.3-2.3l0,0V266c0-1.2,1-2.2,2.3-2.2h33.9c1.2,0,2.3,1,2.3,2.2v1.2
		C235.4,268.4,234.3,269.4,233.1,269.4z M199.2,264.7c-0.7,0-1.2,0.6-1.2,1.3v1.2c0,0.7,0.5,1.3,1.2,1.3c0,0,0,0,0,0h33.8
		c0.7,0,1.3-0.5,1.3-1.2c0,0,0,0,0,0V266c0-0.7-0.6-1.3-1.2-1.3c0,0,0,0,0,0L199.2,264.7z"></path><path class="st1" d="M233.1,279.8h-33.9c-1.2,0-2.3-1-2.3-2.3l0,0v-1.2c0-1.2,1-2.3,2.3-2.3l0,0h33.9c1.2,0,2.3,1,2.3,2.3l0,0v1.2
		C235.4,278.7,234.3,279.8,233.1,279.8L233.1,279.8z M199.2,275.1c-0.7,0-1.3,0.6-1.3,1.3l0,0v1.2c0,0.7,0.6,1.3,1.3,1.3l0,0h33.9
		c0.7,0,1.3-0.6,1.3-1.3l0,0v-1.2c0-0.7-0.6-1.3-1.3-1.3l0,0H199.2z"></path><path class="st0" d="M219.2,79.1h157.2c4.2,0,7.6,3.4,7.6,7.7v209.2c0,4.2-3.4,7.6-7.6,7.6H219.2c-4.2,0-7.6-3.4-7.6-7.6V86.8
		C211.6,82.5,215,79.1,219.2,79.1z"></path><path class="st1" d="M376.5,304.1H219.2c-4.5,0-8.1-3.7-8.1-8.1V86.8c0-4.5,3.7-8.1,8.1-8.2h157.2c4.5,0,8.1,3.7,8.1,8.2v209.2
		C384.6,300.4,381,304.1,376.5,304.1z M219.2,79.6c-3.9,0-7.1,3.2-7.1,7.2v209.2c0,3.9,3.2,7.1,7.1,7.1h157.2c3.9,0,7.1-3.2,7.1-7.1
		V86.8c0-3.9-3.2-7.1-7.1-7.2H219.2z"></path><path class="st1" d="M365.5,139.5H230.2c-3.1,0-5.6-2.5-5.6-5.6c0,0,0,0,0,0v-33.1c0-3.1,2.5-5.6,5.6-5.6h135.3
		c3.1,0,5.6,2.5,5.6,5.6v33.1C371.1,136.9,368.6,139.5,365.5,139.5z M230.2,96.1c-2.6,0-4.6,2.1-4.6,4.6v33.1c0,2.6,2.1,4.6,4.6,4.6
		c0,0,0,0,0,0h135.3c2.6,0,4.6-2.1,4.6-4.6c0,0,0,0,0,0v-33.1c0-2.6-2.1-4.6-4.6-4.6H230.2z"></path><rect class="st2" x="232.9" y="101.5" width="6.8" height="6.8"></rect><path class="st1" d="M239.6,108.8h-6.8c-0.3,0-0.5-0.2-0.5-0.5v-6.8c0-0.3,0.2-0.5,0.5-0.5h6.8c0.3,0,0.5,0.2,0.5,0.5v6.8
		C240.1,108.5,239.9,108.8,239.6,108.8z M233.4,107.8h5.8V102h-5.8V107.8z"></path><rect class="st2" x="232.9" y="113.9" width="6.8" height="6.8"></rect><path class="st1" d="M239.6,121.2h-6.8c-0.3,0-0.5-0.2-0.5-0.5v-6.8c0-0.3,0.2-0.5,0.5-0.5h6.8c0.3,0,0.5,0.2,0.5,0.5v6.8
		C240.1,120.9,239.9,121.2,239.6,121.2z M233.4,120.2h5.8v-5.8h-5.8V120.2z"></path><rect class="st2" x="232.9" y="126.3" width="6.8" height="6.8"></rect><path class="st1" d="M239.6,133.5h-6.8c-0.3,0-0.5-0.2-0.5-0.5v-6.8c0-0.3,0.2-0.5,0.5-0.5h6.8c0.3,0,0.5,0.2,0.5,0.5v6.7
		C240.2,133.3,239.9,133.5,239.6,133.5C239.7,133.5,239.6,133.5,239.6,133.5z M233.4,132.5h5.8v-5.8h-5.8V132.5z"></path><path class="st1" d="M355.6,114.4h-41.2c-1.3,0-2.3-1-2.3-2.3v-2c0-1.3,1-2.3,2.3-2.3h41.2c1.3,0,2.3,1,2.3,2.3v2
		C357.9,113.4,356.9,114.4,355.6,114.4z M314.4,108.8c-0.7,0-1.3,0.6-1.3,1.3v2c0,0.7,0.6,1.3,1.3,1.3h41.2c0.7,0,1.3-0.6,1.3-1.3
		v-2c0-0.7-0.6-1.3-1.3-1.3H314.4z"></path><path class="st1" d="M355.6,126.8h-41.2c-1.3,0-2.3-1-2.3-2.3v-2c0-1.3,1-2.3,2.3-2.3h41.2c1.3,0,2.3,1,2.3,2.3v2
		C357.9,125.7,356.9,126.8,355.6,126.8z M314.4,121.2c-0.7,0-1.3,0.6-1.3,1.3v2c0,0.7,0.6,1.3,1.3,1.3h41.2c0.7,0,1.3-0.6,1.3-1.3
		v-2c0-0.7-0.6-1.3-1.3-1.3H314.4z"></path><path class="st1" d="M365.5,188.8H230.2c-3.1,0-5.6-2.5-5.6-5.6v-33.1c0-3.1,2.5-5.6,5.6-5.6c0,0,0,0,0,0h135.3
		c3.1,0,5.6,2.5,5.6,5.6v33.1C371.1,186.3,368.6,188.8,365.5,188.8z M230.2,145.5c-2.6,0-4.6,2.1-4.6,4.6c0,0,0,0,0,0v33.1
		c0,2.6,2.1,4.6,4.6,4.6h135.3c2.6,0,4.6-2.1,4.6-4.6v-33.1c0-2.6-2.1-4.6-4.6-4.6l0,0L230.2,145.5z"></path><rect class="st2" x="232.9" y="150.9" width="6.8" height="6.8"></rect><path class="st1" d="M239.6,158.1h-6.8c-0.3,0-0.5-0.2-0.5-0.5v-6.8c0-0.3,0.2-0.5,0.5-0.5h6.8c0.3,0,0.5,0.2,0.5,0.5v6.8
		C240.1,157.9,239.9,158.1,239.6,158.1z M233.4,157.1h5.8v-5.8h-5.8V157.1z"></path><rect class="st2" x="232.9" y="163.3" width="6.8" height="6.8"></rect><path class="st1" d="M239.6,170.5h-6.8c-0.3,0-0.5-0.2-0.5-0.5v-6.8c0-0.3,0.2-0.5,0.5-0.5h6.8c0.3,0,0.5,0.2,0.5,0.5v6.7
		C240.1,170.3,239.9,170.5,239.6,170.5C239.7,170.5,239.6,170.5,239.6,170.5z M233.4,169.5h5.8v-5.8h-5.8V169.5z"></path><rect class="st2" x="232.9" y="175.6" width="6.8" height="6.8"></rect><path class="st1" d="M239.6,182.9h-6.8c-0.3,0-0.5-0.2-0.5-0.5v-6.8c0-0.3,0.2-0.5,0.5-0.5h6.8c0.3,0,0.5,0.2,0.5,0.5v6.8
		C240.1,182.7,239.9,182.9,239.6,182.9z M233.4,181.9h5.8v-5.8h-5.8V181.9z"></path><path class="st1" d="M355.6,163.8h-41.2c-1.3,0-2.3-1-2.3-2.3v-2c0-1.3,1-2.3,2.3-2.3h41.2c1.3,0,2.3,1,2.3,2.3v2
		C357.9,162.7,356.9,163.8,355.6,163.8z M314.4,158.2c-0.7,0-1.3,0.6-1.3,1.3l0,0v2c0,0.7,0.6,1.3,1.3,1.3h41.2
		c0.7,0,1.3-0.6,1.3-1.3v-2c0-0.7-0.6-1.3-1.3-1.3H314.4z"></path><path class="st1" d="M355.6,176.1h-41.2c-1.3,0-2.3-1-2.3-2.3v-2c0-1.3,1-2.3,2.3-2.3h41.2c1.3,0,2.3,1,2.3,2.3v2
		C357.9,175.1,356.9,176.1,355.6,176.1z M314.4,170.5c-0.7,0-1.3,0.6-1.3,1.3v2c0,0.7,0.6,1.3,1.3,1.3h41.2c0.7,0,1.3-0.6,1.3-1.3
		v-2c0-0.7-0.6-1.3-1.3-1.3H314.4z"></path><path class="st1" d="M365.5,238.2H230.2c-3.1,0-5.6-2.5-5.6-5.6v-33.1c0-3.1,2.5-5.6,5.6-5.6h135.3c3.1,0,5.6,2.5,5.6,5.6v33.1
		C371.1,235.7,368.6,238.2,365.5,238.2z M230.2,194.8c-2.6,0-4.6,2.1-4.6,4.6v33.1c0,2.6,2.1,4.6,4.6,4.6h135.3
		c2.6,0,4.6-2.1,4.6-4.6v-33.1c0-2.6-2.1-4.6-4.6-4.6H230.2z"></path><rect class="st2" x="232.9" y="200.3" width="6.8" height="6.8"></rect><path class="st1" d="M239.6,207.5h-6.8c-0.3,0-0.5-0.2-0.5-0.5v-6.8c0-0.3,0.2-0.5,0.5-0.5h6.8c0.3,0,0.5,0.2,0.5,0.5v6.7
		C240.1,207.3,239.9,207.5,239.6,207.5C239.6,207.5,239.6,207.5,239.6,207.5z M233.4,206.5h5.8v-5.8h-5.8V206.5z"></path><rect class="st2" x="232.9" y="212.6" width="6.8" height="6.8"></rect><path class="st1" d="M239.6,219.9h-6.8c-0.3,0-0.5-0.2-0.5-0.5v-6.8c0-0.3,0.2-0.5,0.5-0.5h6.8c0.3,0,0.5,0.2,0.5,0.5v6.8
		C240.1,219.7,239.9,219.9,239.6,219.9z M233.4,218.9h5.8v-5.8h-5.8V218.9z"></path><rect class="st2" x="232.9" y="225" width="6.8" height="6.8"></rect><path class="st1" d="M239.6,232.3h-6.8c-0.3,0-0.5-0.2-0.5-0.5V225c0-0.3,0.2-0.5,0.5-0.5h6.8c0.3,0,0.5,0.2,0.5,0.5v6.8
		C240.1,232,239.9,232.3,239.6,232.3C239.7,232.3,239.6,232.3,239.6,232.3z M233.4,231.3h5.8v-5.8h-5.8V231.3z"></path><path class="st1" d="M355.6,213.1h-41.2c-1.3,0-2.3-1-2.3-2.3v-2c0-1.3,1-2.3,2.3-2.3h41.2c1.3,0,2.3,1,2.3,2.3v2
		C357.9,212.1,356.9,213.1,355.6,213.1z M314.4,207.5c-0.7,0-1.3,0.6-1.3,1.3v2c0,0.7,0.6,1.3,1.3,1.3h41.2c0.7,0,1.3-0.6,1.3-1.3
		v-2c0-0.7-0.6-1.3-1.3-1.3H314.4z"></path><path class="st1" d="M355.6,225.5h-41.2c-1.3,0-2.3-1-2.3-2.3v-2c0-1.3,1-2.3,2.3-2.3h41.2c1.3,0,2.3,1,2.3,2.3v2
		C357.9,224.5,356.9,225.5,355.6,225.5z M314.4,219.9c-0.7,0-1.3,0.6-1.3,1.3l0,0v2c0,0.7,0.6,1.3,1.3,1.3h41.2
		c0.7,0,1.3-0.6,1.3-1.3v-2c0-0.7-0.6-1.3-1.3-1.3H314.4z"></path><path class="st1" d="M365.5,287.6H230.2c-3.1,0-5.6-2.5-5.6-5.6l0,0v-33.1c0-3.1,2.5-5.6,5.6-5.6c0,0,0,0,0,0h135.3
		c3.1,0,5.6,2.5,5.6,5.6V282C371.1,285.1,368.6,287.6,365.5,287.6z M230.2,244.2c-2.6,0-4.6,2.1-4.6,4.6V282c0,2.6,2.1,4.6,4.6,4.6
		h135.3c2.6,0,4.6-2.1,4.6-4.6v-33.2c0-2.6-2.1-4.6-4.6-4.6L230.2,244.2z"></path><rect class="st2" x="232.9" y="249.6" width="6.8" height="6.8"></rect><path class="st1" d="M239.6,256.9h-6.8c-0.3,0-0.5-0.2-0.5-0.5v-6.8c0-0.3,0.2-0.5,0.5-0.5h6.8c0.3,0,0.5,0.2,0.5,0.5v6.8
		C240.1,256.7,239.9,256.9,239.6,256.9z M233.4,255.9h5.8v-5.8h-5.8V255.9z"></path><rect class="st2" x="232.9" y="262" width="6.8" height="6.8"></rect><path class="st1" d="M239.6,269.3h-6.8c-0.3,0-0.5-0.2-0.5-0.5V262c0-0.3,0.2-0.5,0.5-0.5h6.8c0.3,0,0.5,0.2,0.5,0.5v6.8
		C240.1,269,239.9,269.3,239.6,269.3C239.6,269.3,239.6,269.3,239.6,269.3z M233.4,268.3h5.8v-5.8h-5.8V268.3z"></path><rect class="st2" x="232.9" y="274.4" width="6.8" height="6.8"></rect><path class="st1" d="M239.6,281.7h-6.8c-0.3,0-0.5-0.2-0.5-0.5v-6.8c0-0.3,0.2-0.5,0.5-0.5h6.8c0.3,0,0.5,0.2,0.5,0.5v6.8
		C240.1,281.4,239.9,281.7,239.6,281.7C239.6,281.7,239.6,281.7,239.6,281.7z M233.4,280.7h5.8v-5.8h-5.8V280.7z"></path><path class="st1" d="M355.6,262.5h-41.2c-1.3,0-2.3-1-2.3-2.3v-2c0-1.3,1-2.3,2.3-2.3h41.2c1.3,0,2.3,1,2.3,2.3v2
		C357.9,261.5,356.9,262.5,355.6,262.5z M314.4,256.9c-0.7,0-1.3,0.6-1.3,1.3v2c0,0.7,0.6,1.3,1.3,1.3h41.2c0.7,0,1.3-0.6,1.3-1.3
		v-2c0-0.7-0.6-1.3-1.3-1.3H314.4z"></path><path class="st1" d="M355.6,274.9h-41.2c-1.3,0-2.3-1-2.3-2.3v-2c0-1.3,1-2.3,2.3-2.3h41.2c1.3,0,2.3,1,2.3,2.3v2
		C357.9,273.9,356.9,274.9,355.6,274.9z M314.4,269.3c-0.7,0-1.3,0.6-1.3,1.3v2c0,0.7,0.6,1.3,1.3,1.3h41.2c0.7,0,1.3-0.6,1.3-1.3
		v-2c0-0.7-0.6-1.3-1.3-1.3H314.4z"></path></g><g id="monitor"><g id="monitor-2"><g id="monitor-3"><path class="st1" d="M186.9,387.7h-40c4.5,0,8.8-1.8,12.1-4.9l10.4-10.2c1.1-1.1,1.6-2.7,1.2-4.2l-3.2-14.5h5.5
				c0,0,2.7,17.6,4.4,20.3s8.6,4,9.6,5.4S186.9,387.7,186.9,387.7z"></path><path class="st1" d="M186.9,388.2h-40c-0.3,0-0.5-0.2-0.5-0.5s0.2-0.5,0.5-0.5c4.4,0,8.6-1.7,11.7-4.8l10.4-10.2
				c1-1,1.4-2.4,1.1-3.8l-3.2-14.5c0-0.1,0-0.3,0.1-0.4c0.1-0.1,0.2-0.2,0.4-0.2h5.5c0.2,0,0.5,0.2,0.5,0.4c0.9,6,3,18,4.4,20.1
				c0.9,1.4,3.6,2.5,5.8,3.4c1.9,0.7,3.3,1.3,3.8,2.1c1,1.5,0.2,7.4,0.1,8.5C187.3,388,187.1,388.2,186.9,388.2z M152.7,387.2h33.7
				c0.3-2.5,0.6-6.5,0-7.4c-0.3-0.5-1.9-1.1-3.4-1.7c-2.4-1-5.2-2-6.3-3.8c-1.6-2.6-4-17.3-4.4-20.1h-4.5l3.1,13.9
				c0.4,1.7-0.1,3.5-1.4,4.7l-10.4,10.2C157.4,384.9,155.2,386.3,152.7,387.2L152.7,387.2z"></path><path class="st0" d="M169.2,372.5l-10.4,10.2c-3.2,3.2-7.5,4.9-12.1,4.9h-37.2c-0.8,0-1.4-0.6-1.4-1.3c0-0.6,0.3-1.1,0.8-1.3
				c6.1-3.1,15-8.5,15.6-14.3c1-9-4.9-16.9-4.9-16.9h47.6l3.2,14.5C170.8,369.8,170.4,371.4,169.2,372.5z"></path><path class="st1" d="M146.8,388.2h-37.2c-1,0-1.9-0.8-1.9-1.9c0-0.7,0.4-1.4,1.1-1.7c5.5-2.7,14.7-8.2,15.3-13.9
				c0.9-8.7-4.8-16.5-4.8-16.6c-0.2-0.2-0.1-0.5,0.1-0.7c0.1-0.1,0.2-0.1,0.3-0.1h47.6c0.2,0,0.4,0.2,0.5,0.4l3.2,14.5
				c0.4,1.7-0.1,3.5-1.4,4.7l0,0l-10.4,10.2C155.9,386.4,151.5,388.2,146.8,388.2z M120.6,354.3c1.5,2.3,5.3,9,4.5,16.5
				c-0.7,5.9-9,11.2-15.9,14.7c-0.4,0.2-0.6,0.6-0.5,1c0.1,0.4,0.5,0.7,0.9,0.7h37.2c4.4,0,8.6-1.7,11.7-4.8l10.4-10.2
				c1-1,1.4-2.4,1.1-3.8l-3.1-14.1L120.6,354.3z M169.2,372.5L169.2,372.5z"></path><path class="st0" d="M51.8,208.8h204c3.5,0,6.3,2.8,6.3,6.3v132.4c0,3.5-2.8,6.3-6.3,6.3h-204c-3.5,0-6.3-2.8-6.3-6.3V215.1
				C45.5,211.6,48.4,208.8,51.8,208.8z"></path><path class="st1" d="M255.9,354.3h-204c-3.7,0-6.8-3-6.8-6.8V215.1c0-3.7,3-6.8,6.8-6.8h204c3.7,0,6.8,3,6.8,6.8v132.4
				C262.7,351.2,259.6,354.3,255.9,354.3z M51.9,209.3c-3.2,0-5.8,2.6-5.8,5.8v132.4c0,3.2,2.6,5.8,5.8,5.8h204
				c3.2,0,5.8-2.6,5.8-5.8V215.1c0-3.2-2.6-5.8-5.8-5.8H51.9z"></path><rect class="st0" x="56.2" y="218.1" width="195.4" height="126.4"></rect><path class="st1" d="M251.5,345H56.2c-0.3,0-0.5-0.2-0.5-0.5V218.1c0-0.3,0.2-0.5,0.5-0.5h195.4c0.3,0,0.5,0.2,0.5,0.5v126.4
				C252,344.8,251.8,345,251.5,345z M56.7,344H251V218.6H56.7V344z"></path></g><path class="st1" d="M251.5,345H56.2c-0.3,0-0.5-0.2-0.5-0.5V229.2c0-0.3,0.2-0.5,0.5-0.5h195.4c0.3,0,0.5,0.2,0.5,0.5v115.3
			C252,344.8,251.8,345,251.5,345z M56.7,344H251V229.7H56.7V344z"></path><path class="st1" d="M251.5,229.7H56.2c-0.3,0-0.5-0.2-0.5-0.5v-11.1c0-0.3,0.2-0.5,0.5-0.5h195.4c0.3,0,0.5,0.2,0.5,0.5v11.1
			C252,229.5,251.8,229.7,251.5,229.7z M56.7,228.7H251v-10.1H56.7L56.7,228.7z"></path><path class="st1" d="M251.5,345H56.2c-0.3,0-0.5-0.2-0.5-0.5v-11.6c0-0.3,0.2-0.5,0.5-0.5h195.4c0.3,0,0.5,0.2,0.5,0.5v11.7
			C252,344.8,251.8,345,251.5,345z M56.7,344H251v-10.6H56.7V344z"></path><circle class="st2" cx="63.4" cy="223.3" r="1.8"></circle><path class="st1" d="M63.4,225.6c-1.3,0-2.3-1-2.3-2.3c0-1.3,1-2.3,2.3-2.3c1.3,0,2.3,1,2.3,2.3C65.7,224.6,64.7,225.6,63.4,225.6
			z M63.4,222c-0.7,0-1.3,0.6-1.3,1.3c0,0.7,0.6,1.3,1.3,1.3c0.7,0,1.3-0.6,1.3-1.3C64.7,222.6,64.1,222,63.4,222
			C63.4,222,63.4,222,63.4,222L63.4,222z"></path><circle class="st2" cx="70.2" cy="223.3" r="1.8"></circle><path class="st1" d="M70.2,225.6c-1.3,0-2.3-1-2.3-2.3s1-2.3,2.3-2.3c1.3,0,2.3,1,2.3,2.3S71.5,225.6,70.2,225.6L70.2,225.6z
			 M70.2,222c-0.7,0-1.3,0.6-1.3,1.3s0.6,1.3,1.3,1.3c0.7,0,1.3-0.6,1.3-1.3C71.5,222.6,70.9,222,70.2,222
			C70.2,222,70.2,222,70.2,222L70.2,222z"></path><circle class="st2" cx="77" cy="223.3" r="1.8"></circle><path class="st1" d="M77,225.6c-1.3,0-2.3-1-2.3-2.3s1-2.3,2.3-2.3c1.3,0,2.3,1,2.3,2.3S78.3,225.6,77,225.6L77,225.6z M77,222
			c-0.7,0-1.3,0.6-1.3,1.3s0.6,1.3,1.3,1.3c0.7,0,1.3-0.6,1.3-1.3C78.3,222.6,77.7,222,77,222C77,222,77,222,77,222L77,222z"></path></g><rect class="st2" x="61.2" y="271" width="10.6" height="57.3"></rect><path class="st1" d="M71.7,328.8H61.2c-0.3,0-0.5-0.2-0.5-0.5V271c0-0.3,0.2-0.5,0.5-0.5h10.6c0.3,0,0.5,0.2,0.5,0.5v57.3
		C72.2,328.6,72,328.8,71.7,328.8z M61.7,327.8h9.6v-56.3h-9.6V327.8z"></path><rect class="st0" x="75.8" y="279.1" width="10.6" height="49.1"></rect><path class="st1" d="M86.3,328.8H75.8c-0.3,0-0.5-0.2-0.5-0.5v-49.1c0-0.3,0.2-0.5,0.5-0.5h10.6c0.3,0,0.5,0.2,0.5,0.5v49.1
		C86.8,328.5,86.6,328.8,86.3,328.8z M76.2,327.8h9.6v-48.1h-9.6V327.8z"></path><rect class="st2" x="90.3" y="268.1" width="10.6" height="60.2"></rect><path class="st1" d="M100.9,328.8H90.3c-0.3,0-0.5-0.2-0.5-0.5v-60.2c0-0.3,0.2-0.5,0.5-0.5h10.6c0.3,0,0.5,0.2,0.5,0.5v60.2
		C101.4,328.5,101.2,328.8,100.9,328.8z M90.8,327.8h9.6v-59.2h-9.6L90.8,327.8z"></path><rect class="st0" x="104.9" y="276.2" width="10.6" height="52.1"></rect><path class="st1" d="M115.5,328.8h-10.6c-0.3,0-0.5-0.2-0.5-0.5v-52.1c0-0.3,0.2-0.5,0.5-0.5h10.6c0.3,0,0.5,0.2,0.5,0.5v52.1
		C116,328.5,115.8,328.8,115.5,328.8z M105.4,327.8h9.6v-51.1h-9.6V327.8z"></path><rect class="st2" x="119.5" y="290.3" width="10.6" height="37.9"></rect><path class="st1" d="M130.1,328.8h-10.6c-0.3,0-0.5-0.2-0.5-0.5v-37.9c0-0.3,0.2-0.5,0.5-0.5h10.6c0.3,0,0.5,0.2,0.5,0.5v37.9
		C130.6,328.5,130.4,328.8,130.1,328.8z M120,327.8h9.6v-36.9H120L120,327.8z"></path><rect class="st0" x="134.1" y="265.8" width="10.6" height="62.5"></rect><path class="st1" d="M144.7,328.8h-10.6c-0.3,0-0.5-0.2-0.5-0.5v-62.5c0-0.3,0.2-0.5,0.5-0.5h10.6c0.3,0,0.5,0.2,0.5,0.5v62.5
		C145.2,328.5,144.9,328.8,144.7,328.8z M134.6,327.8h9.6v-61.5h-9.6V327.8z"></path><rect class="st2" x="148.7" y="249.2" width="10.6" height="79.1"></rect><path class="st1" d="M159.2,328.8h-10.6c-0.3,0-0.5-0.2-0.5-0.5v-79.1c0-0.3,0.2-0.5,0.5-0.5h10.6c0.3,0,0.5,0.2,0.5,0.5v79.1
		C159.7,328.5,159.5,328.8,159.2,328.8z M149.2,327.8h9.6v-78.1h-9.6V327.8z"></path><rect class="st0" x="163.3" y="265.8" width="10.6" height="62.5"></rect><path class="st1" d="M173.8,328.8h-10.6c-0.3,0-0.5-0.2-0.5-0.5v-62.5c0-0.3,0.2-0.5,0.5-0.5h10.6c0.3,0,0.5,0.2,0.5,0.5v62.5
		C174.3,328.5,174.1,328.8,173.8,328.8z M163.8,327.8h9.6v-61.5h-9.6V327.8z"></path><rect class="st2" x="177.9" y="290.3" width="10.6" height="37.9"></rect><path class="st1" d="M188.4,328.8h-10.6c-0.3,0-0.5-0.2-0.5-0.5v-37.9c0-0.3,0.2-0.5,0.5-0.5h10.6c0.3,0,0.5,0.2,0.5,0.5v37.9
		C188.9,328.5,188.7,328.8,188.4,328.8L188.4,328.8z M178.4,327.8h9.6v-36.9h-9.6V327.8z"></path><rect class="st2" x="177.9" y="290.3" width="10.6" height="37.9"></rect><path class="st1" d="M188.4,328.8h-10.6c-0.3,0-0.5-0.2-0.5-0.5v-37.9c0-0.3,0.2-0.5,0.5-0.5h10.6c0.3,0,0.5,0.2,0.5,0.5v37.9
		C188.9,328.5,188.7,328.8,188.4,328.8L188.4,328.8z M178.4,327.8h9.6v-36.9h-9.6V327.8z"></path><rect class="st0" x="192.4" y="265.8" width="10.6" height="62.5"></rect><path class="st1" d="M203,328.8h-10.6c-0.3,0-0.5-0.2-0.5-0.5v-62.5c0-0.3,0.2-0.5,0.5-0.5H203c0.3,0,0.5,0.2,0.5,0.5v62.5
		C203.5,328.5,203.3,328.8,203,328.8z M192.9,327.8h9.6v-61.5h-9.6V327.8z"></path><rect class="st2" x="207" y="249.2" width="10.6" height="79.1"></rect><path class="st1" d="M217.6,328.8H207c-0.3,0-0.5-0.2-0.5-0.5v-79.1c0-0.3,0.2-0.5,0.5-0.5h10.6c0.3,0,0.5,0.2,0.5,0.5v79.1
		C218.1,328.5,217.9,328.8,217.6,328.8z M207.5,327.8h9.6v-78.1h-9.6V327.8z"></path><rect class="st0" x="221.6" y="265.8" width="10.6" height="62.5"></rect><path class="st1" d="M232.2,328.8h-10.6c-0.3,0-0.5-0.2-0.5-0.5v-62.5c0-0.3,0.2-0.5,0.5-0.5h10.6c0.3,0,0.5,0.2,0.5,0.5v62.5
		C232.7,328.5,232.5,328.8,232.2,328.8z M222.1,327.8h9.6v-61.5h-9.6L222.1,327.8z"></path><rect class="st2" x="236.2" y="290.3" width="10.6" height="37.9"></rect><path class="st1" d="M246.8,328.8h-10.6c-0.3,0-0.5-0.2-0.5-0.5v-37.9c0-0.3,0.2-0.5,0.5-0.5h10.6c0.3,0,0.5,0.2,0.5,0.5v37.9
		C247.3,328.5,247,328.8,246.8,328.8L246.8,328.8z M236.7,327.8h9.6v-36.9h-9.6V327.8z"></path></g><path class="st1" id="cable" d="M177.9,382.2c-0.3,0-0.5-0.2-0.5-0.5s0.2-0.5,0.5-0.5c95.4,0,118.7-9.7,128.2-27.6
	c1.8-3.3,2.1-6.4,1.1-9.4c-2.7-8-14.5-13.4-24.1-17.7c-4.5-2-8.4-3.8-10.5-5.5c-3.5-2.9-4.9-7.1-3.4-10.8c2-5.1,8.7-7.7,17.8-7.1
	c0.3,0,0.5,0.3,0.5,0.5c0,0,0,0,0,0c0,0.3-0.3,0.5-0.5,0.5c-8.6-0.6-14.9,1.8-16.8,6.4c-1.3,3.3-0.1,7,3.1,9.6
	c1.9,1.6,5.8,3.4,10.2,5.4c9.7,4.4,21.8,9.9,24.6,18.3c1.1,3.4,0.7,7.1-1.1,10.2C297.2,372.3,273.8,382.2,177.9,382.2z"></path><g id="dialog-box"><path class="st0" id="dialog_box" d="M108.1,195.3V230c0,1.6,1.3,2.9,2.9,2.9c0.8,0,1.5-0.3,2-0.8c3.5-3.3,7.6-7.2,7.7-7.2h40.1
		c1.6,0,2.9-1.3,2.9-2.9v-26.7c0-1.6-1.3-2.9-2.9-2.9H111C109.4,192.4,108.1,193.7,108.1,195.3z"></path><path class="st1" d="M111.1,233.4c-1.9,0-3.4-1.5-3.4-3.4v-34.7c0-1.9,1.5-3.4,3.4-3.4h49.8c1.9,0,3.4,1.5,3.4,3.4V222
		c0,1.9-1.5,3.4-3.4,3.4h-39.9c-0.4,0.3-1.8,1.7-7.5,7.1C112.8,233.1,111.9,233.4,111.1,233.4z M111.1,192.9c-1.3,0-2.4,1.1-2.4,2.4
		c0,0,0,0,0,0V230c0,1.3,1.1,2.4,2.4,2.4c0.6,0,1.2-0.2,1.6-0.6c7.7-7.3,7.8-7.3,8.1-7.3h40.1c1.3,0,2.4-1.1,2.4-2.4v-26.7
		c0-1.3-1.1-2.4-2.4-2.4L111.1,192.9z"></path></g><g id="folder-icon"><rect class="st0" x="48.7" y="168.8" width="39.4" height="28.8"></rect><path class="st1" d="M88.1,198.1H48.7c-0.3,0-0.5-0.2-0.5-0.5v-28.8c0-0.3,0.2-0.5,0.5-0.5h39.4c0.3,0,0.5,0.2,0.5,0.5v28.8
		C88.6,197.9,88.4,198.1,88.1,198.1z M49.2,197.1h38.4v-27.8H49.2V197.1z"></path><path class="st2" d="M72.1,161.5H48.7v7.4h28.9l-2.6-5.5C74.5,162.2,73.3,161.5,72.1,161.5z"></path><path class="st1" d="M77.6,169.3H48.7c-0.3,0-0.5-0.2-0.5-0.5v-7.4c0-0.3,0.2-0.5,0.5-0.5h23.4c1.4,0,2.8,0.8,3.4,2.1l2.6,5.5
		c0.1,0.1,0.1,0.3,0,0.5C78,169.3,77.8,169.4,77.6,169.3z M49.2,168.3h27.6l-2.3-4.8c-0.5-0.9-1.4-1.5-2.5-1.5H49.2V168.3z"></path></g></svg>