<svg transform="scale(1)" id="_01193_Security_2" xmlns="http://www.w3.org/2000/svg" viewBox="0 0 500 500" class="show_show__wrapper__graphic__5Waiy "><title>React</title><g id="security"><path d="M365.1,187.81v118.33c0,7.38-2.03,14.62-5.88,20.93-11.16,18.32-39.06,56.87-90.59,86.73-14.22,8.24-31.78,8.24-46.01,0-51.54-29.86-79.45-68.41-90.61-86.73-3.83-6.31-5.85-13.56-5.85-20.93v-118.33c0-6.87,3.85-13.13,9.91-16.37,16.73-8.92,25.67-24.35,30.08-34.9,2.84-6.82,9.61-11.18,16.98-11.18h124.97c7.4,0,14.14,4.36,17.01,11.18,4.38,10.54,13.33,25.98,30.08,34.9,6.06,3.24,9.91,9.5,9.91,16.37Z" fill="#fff" stroke-width="0"></path><path d="M245.63,420.46c-8.04,0-16.08-2.08-23.25-6.23-50.88-29.47-78.72-67.1-90.78-86.91-3.88-6.39-5.93-13.72-5.93-21.19v-118.33c0-7.01,3.9-13.45,10.17-16.81,16.34-8.72,25.26-23.65,29.86-34.65,2.9-6.98,9.75-11.48,17.44-11.48h124.97c7.68,0,14.54,4.51,17.47,11.48,4.57,10.99,13.46,25.92,29.86,34.65,6.28,3.36,10.17,9.8,10.17,16.81v118.33c0,7.49-2.06,14.82-5.95,21.19-12.07,19.8-39.9,57.43-90.76,86.9-7.17,4.16-15.21,6.23-23.26,6.23ZM183.14,125.86c-7.29,0-13.77,4.27-16.52,10.87-4.66,11.15-13.7,26.29-30.31,35.15-5.95,3.18-9.65,9.29-9.65,15.93v118.33c0,7.29,2,14.44,5.78,20.67,12.02,19.73,39.75,57.2,90.43,86.56,14.04,8.13,31.47,8.13,45.5,0,50.67-29.36,78.39-66.83,90.41-86.56,3.8-6.22,5.81-13.37,5.81-20.67v-118.33c0-6.64-3.7-12.75-9.64-15.93-16.66-8.87-25.68-24.01-30.31-35.15-2.77-6.6-9.27-10.87-16.54-10.87h-124.97Z" fill="#003566" stroke-width="0"></path><path d="M334.69,194.65v111.48c0,1.8-.48,3.57-1.42,5.09-8.52,13.94-33.28,49.24-79.88,76.26-2.36,1.37-5.04,2.08-7.76,2.08v-233.79h54.87c6.49,12.9,17.13,27.93,34.19,38.88Z" fill="#4e9edd" stroke-width="0"></path><path d="M245.64,390.06c-.28,0-.5-.22-.5-.5v-233.79c0-.28.22-.5.5-.5h54.87c.19,0,.36.11.45.28,8.3,16.51,19.75,29.52,34.01,38.68.14.09.23.25.23.42v111.48c0,1.92-.52,3.77-1.49,5.36-8.54,13.97-33.43,49.4-80.06,76.43-2.42,1.4-5.19,2.14-8.01,2.14ZM246.14,156.27v232.78c2.47-.08,4.88-.77,7-2,46.42-26.91,71.21-62.17,79.71-76.08.88-1.43,1.34-3.1,1.34-4.83v-111.21c-14.23-9.2-25.67-22.2-33.99-38.65h-54.06Z" fill="#003566" stroke-width="0"></path><path d="M245.64,155.77v233.79c-2.74,0-5.4-.71-7.76-2.08-46.63-27.02-71.39-62.32-79.88-76.23-.91-1.52-1.42-3.29-1.42-5.12v-111.48c16.98-10.9,27.65-25.93,34.19-38.88h54.87Z" fill="#fff" stroke-width="0"></path><path d="M245.64,390.06c-2.82,0-5.59-.74-8.01-2.14-46.68-27.05-71.54-62.44-80.06-76.4-.98-1.63-1.49-3.49-1.49-5.38v-111.48c0-.17.09-.33.23-.42,14.22-9.12,25.66-22.14,34.01-38.68.08-.17.26-.27.45-.27h54.87c.28,0,.5.22.5.5v233.79c0,.28-.22.5-.5.5ZM157.08,194.92v111.21c0,1.71.47,3.39,1.35,4.86,8.48,13.89,33.22,49.12,79.7,76.06,2.12,1.23,4.53,1.92,7,2v-232.78h-54.06c-8.38,16.49-19.81,29.49-33.99,38.65Z" fill="#003566" stroke-width="0"></path></g><g id="lock"><path d="M194.92,121.51c-3.72,0-6.73-3.01-6.73-6.73v-26.2c0-19.68-16.01-35.7-35.7-35.7s-35.7,16.01-35.7,35.7v26.2c0,3.72-3.01,6.73-6.73,6.73s-6.73-3.01-6.73-6.73v-26.2c0-27.1,22.05-49.15,49.15-49.15s49.15,22.05,49.15,49.15v26.2c0,3.72-3.01,6.73-6.73,6.73Z" fill="#4e9edd" stroke-width="0"></path><path d="M194.92,122.01c-3.98,0-7.23-3.24-7.23-7.23v-26.2c0-19.41-15.79-35.2-35.2-35.2s-35.2,15.79-35.2,35.2v26.2c0,3.98-3.24,7.23-7.23,7.23s-7.23-3.24-7.23-7.23v-26.2c0-27.38,22.27-49.65,49.65-49.65s49.65,22.27,49.65,49.65v26.2c0,3.98-3.24,7.23-7.23,7.23ZM152.5,52.39c19.96,0,36.2,16.24,36.2,36.2v26.2c0,3.43,2.79,6.23,6.23,6.23s6.23-2.79,6.23-6.23v-26.2c0-26.83-21.82-48.65-48.65-48.65s-48.65,21.82-48.65,48.65v26.2c0,3.43,2.79,6.23,6.23,6.23s6.23-2.79,6.23-6.23v-26.2c0-19.96,16.24-36.2,36.2-36.2Z" fill="#003566" stroke-width="0"></path><rect x="86.48" y="108.06" width="132.04" height="103.23" rx="8.86" ry="8.86" fill="#fff" stroke-width="0"></rect><path d="M209.66,211.79h-114.33c-5.16,0-9.36-4.2-9.36-9.36v-85.52c0-5.16,4.2-9.36,9.36-9.36h114.33c5.16,0,9.36,4.2,9.36,9.36v85.52c0,5.16-4.2,9.36-9.36,9.36ZM95.33,108.56c-4.61,0-8.36,3.75-8.36,8.36v85.52c0,4.61,3.75,8.36,8.36,8.36h114.33c4.61,0,8.36-3.75,8.36-8.36v-85.52c0-4.61-3.75-8.36-8.36-8.36h-114.33Z" fill="#003566" stroke-width="0"></path><path d="M159.3,157.91l3.97,21.21c.49,2.62-1.52,5.04-4.19,5.04h-13.16c-2.67,0-4.68-2.43-4.18-5.05l4.02-21.2c-5.36-2.94-8.57-9.22-6.84-15.95,1.22-4.78,5.12-8.7,9.89-9.94,9.33-2.42,17.75,4.59,17.75,13.6,0,5.27-2.94,9.89-7.25,12.29Z" fill="#003566" stroke-width="0"></path></g></svg>