<svg transform="scale(1)" version="1.1" id="_x30_388_x5F_SEO" xmlns="http://www.w3.org/2000/svg" xmlns:xlink="http://www.w3.org/1999/xlink" x="0px" y="0px" viewBox="0 0 500 500" xml:space="preserve" class="show_show__wrapper__graphic__5Waiy "><title>React</title><style type="text/css">
	.st0{fill:#FFFFFF;}
	.st1{fill:#003566;}
	.st2{fill:#4e9edd;}
	.st3{fill:#FFFFFF;stroke:#732A09;stroke-linecap:round;stroke-linejoin:round;}
	.st4{clip-path:url(#SVGID_2_);}
</style><g id="main-bar"><rect class="st0" x="111.8" y="138" width="339.1" height="219.3"></rect><path class="st1" d="M450.9,357.8H111.8c-0.3,0-0.5-0.2-0.5-0.5V138c0-0.3,0.2-0.5,0.5-0.5h339.1c0.3,0,0.5,0.2,0.5,0.5v219.3
		C451.5,357.6,451.2,357.8,450.9,357.8z M112.3,356.8h338V138.5h-338L112.3,356.8z"></path><path class="st2" d="M122.7,107.3H440c6,0,10.9,4.9,10.9,10.9l0,0V138l0,0H111.8l0,0v-19.8C111.8,112.1,116.7,107.3,122.7,107.3z"></path><path class="st1" d="M450.9,138.5H111.8c-0.3,0-0.5-0.2-0.5-0.5v-19.8c0-6.3,5.1-11.4,11.4-11.4H440c6.3,0,11.4,5.1,11.4,11.4V138
		C451.5,138.3,451.2,138.5,450.9,138.5z M112.3,137.5h338v-19.3c0-5.7-4.6-10.4-10.4-10.4H122.7c-5.7,0-10.4,4.6-10.4,10.4
		L112.3,137.5z"></path><circle class="st0" cx="123.7" cy="122.6" r="3.3"></circle><path class="st1" d="M123.7,126.5c-2.1,0-3.8-1.7-3.8-3.8s1.7-3.8,3.8-3.8c2.1,0,3.8,1.7,3.8,3.8S125.8,126.5,123.7,126.5
		L123.7,126.5z M123.7,119.9c-1.5,0-2.8,1.2-2.8,2.8s1.2,2.8,2.8,2.8c1.5,0,2.8-1.2,2.8-2.8S125.3,119.9,123.7,119.9L123.7,119.9z"></path><circle class="st0" cx="135.7" cy="122.6" r="3.3"></circle><path class="st1" d="M135.7,126.5c-2.1,0-3.8-1.7-3.8-3.8s1.7-3.8,3.8-3.8c2.1,0,3.8,1.7,3.8,3.8S137.8,126.5,135.7,126.5
		L135.7,126.5z M135.7,119.9c-1.5,0-2.8,1.2-2.8,2.8s1.2,2.8,2.8,2.8c1.5,0,2.8-1.2,2.8-2.8S137.2,119.9,135.7,119.9L135.7,119.9z"></path><circle class="st0" cx="147.7" cy="122.6" r="3.3"></circle><path class="st1" d="M147.7,126.5c-2.1,0-3.8-1.7-3.8-3.8s1.7-3.8,3.8-3.8c2.1,0,3.8,1.7,3.8,3.8S149.8,126.5,147.7,126.5
		L147.7,126.5z M147.7,119.9c-1.5,0-2.8,1.2-2.8,2.8s1.2,2.8,2.8,2.8s2.8-1.2,2.8-2.8S149.2,119.9,147.7,119.9L147.7,119.9z"></path></g><g id="search-bar"><path class="st0" d="M277.5,221.4c-12.6,12.1-13,32.1-1,44.7c0.3,0.3,0.6,0.6,1,1h-88.3c-12.6,0.4-23.2-9.5-23.5-22.1
		c-0.4-12.6,9.5-23.2,22.1-23.5c0.5,0,0.9,0,1.4,0H277.5z"></path><path class="st1" d="M277.5,267.7h-88.3c-12.9,0-23.4-10.5-23.4-23.4s10.5-23.4,23.4-23.4h88.3c0.2,0,0.4,0.1,0.5,0.3
		c0.1,0.2,0,0.4-0.1,0.6c-12.4,11.9-12.8,31.6-1,44c0.3,0.3,0.6,0.6,1,1c0.2,0.2,0.2,0.4,0.1,0.6
		C277.9,267.5,277.7,267.7,277.5,267.7z M189.2,222c-12.3,0-22.3,10-22.3,22.3c0,12.3,10,22.3,22.3,22.3h87c-12-12.5-12-32.2,0-44.6
		H189.2z"></path><path class="st0" d="M389.3,244.3c0,12.6-10.2,22.8-22.9,22.8h-45.1c12.6-12.1,13-32.1,0.9-44.7c-0.3-0.3-0.6-0.6-0.9-0.9h45.1
		C379.1,221.5,389.3,231.7,389.3,244.3z"></path><path class="st1" d="M366.4,267.7h-45.1c-0.2,0-0.4-0.1-0.5-0.3c-0.1-0.2,0-0.4,0.1-0.6c12.4-11.9,12.8-31.6,0.9-44
		c-0.3-0.3-0.6-0.6-0.9-0.9c-0.2-0.2-0.2-0.4-0.1-0.6c0.1-0.2,0.3-0.3,0.5-0.3h45.1c12.9,0,23.4,10.5,23.4,23.4
		C389.8,257.2,379.4,267.6,366.4,267.7L366.4,267.7z M322.6,266.6h43.8c12.3,0,22.3-10,22.3-22.3c0-12.3-10-22.3-22.3-22.3h-43.8
		C334.6,234.4,334.6,254.1,322.6,266.6z"></path><path class="st2" d="M331.1,244.3c0,8.6-3.5,16.9-9.7,22.9h-43.9c-12.6-12.1-13-32.1-1-44.7c0.3-0.3,0.6-0.6,1-1h43.8
		C327.6,227.4,331.1,235.7,331.1,244.3z"></path><path class="st1" d="M321.3,267.7h-43.8c-0.1,0-0.3-0.1-0.4-0.1c-12.8-12.3-13.3-32.7-1-45.5c0.3-0.3,0.6-0.6,1-1
		c0.1-0.1,0.2-0.1,0.4-0.1h43.8c0.1,0,0.3,0.1,0.4,0.1c12.8,12.3,13.3,32.7,0.9,45.5c-0.3,0.3-0.6,0.6-0.9,0.9
		C321.6,267.6,321.5,267.7,321.3,267.7z M277.7,266.6h43.4c12.3-12,12.6-31.7,0.6-44c-0.2-0.2-0.4-0.4-0.6-0.6h-43.4
		c-12.3,12-12.6,31.7-0.6,44C277.3,266.2,277.5,266.4,277.7,266.6L277.7,266.6z"></path></g><g id="hand"><path class="st2" d="M356.7,337.6c5.7-4.5,12.2-3.6,38,7.3c25.8,10.9,38.6,15.7,38.6,15.7s2.5,25.8-14.4,38.4
		c0,0-61.6-21.8-68.5-25.1c-6.9-3.3-5.9-11.6-3-17.1C350.2,351.2,356.7,337.6,356.7,337.6z"></path><path class="st2" d="M326.5,330.2c-0.3,0.1-0.7,0.2-1.1,0.2c-1.6,0-3-1-3.5-2.5l-15.7-47.6l6.4-2.2l13.7,39.7l2.5,7.8
		C329.5,327.4,328.5,329.5,326.5,330.2C326.5,330.2,326.5,330.2,326.5,330.2z"></path><path class="st1" d="M325.4,330.9c-1.8,0-3.4-1.1-4-2.9l-15.7-47.6c-0.1-0.3,0.1-0.6,0.3-0.7l6.4-2.2c0.3-0.1,0.6,0.1,0.7,0.3
		l13.7,39.7l2.5,7.8c0.7,2.2-0.4,4.6-2.6,5.3c0,0-0.1,0-0.1,0l0,0C326.2,330.8,325.8,330.9,325.4,330.9z M326.4,330.2L326.4,330.2z
		 M306.9,280.6l15.5,47.1c0.6,1.6,2.3,2.5,3.9,2c1.6-0.5,2.6-2.2,2.1-3.9c0,0,0-0.1,0-0.1l-2.5-7.8l-13.5-39.2L306.9,280.6z"></path><path class="st0" d="M339.5,369.4c-0.5,0.2-1.1,0.3-1.7,0.3c-2.4,0-4.6-1.5-5.3-3.8l-23.9-72.4l9.8-3.3l20.8,60.4l3.8,11.8
		c1,2.9-0.6,6.1-3.5,7.1C339.5,369.4,339.5,369.4,339.5,369.4z"></path><path class="st1" d="M337.8,370.2c-2.6,0-4.9-1.7-5.8-4.2l-23.9-72.4c-0.1-0.3,0.1-0.6,0.3-0.7l9.8-3.3c0.3-0.1,0.6,0.1,0.7,0.3
		l20.8,60.4l3.8,11.9c1.1,3.2-0.6,6.6-3.8,7.7c0,0-0.1,0-0.1,0l0,0C339,370.1,338.4,370.2,337.8,370.2z M339.5,369.4L339.5,369.4z
		 M309.3,293.8l23.7,71.9c0.9,2.6,3.7,4,6.3,3.2l0,0c2.6-0.8,4.1-3.6,3.3-6.3c0,0,0-0.1,0-0.1l-3.8-11.8l-20.6-59.9L309.3,293.8z"></path><path class="st0" d="M334.7,348.8c-10.5-6.6-15.3-9.6-17.7-9.6s-1.8,4.6,0,7.3s10.2,7.9,14.5,8.7
		C335.7,356.1,337.1,350.3,334.7,348.8z"></path><path class="st1" d="M332.3,355.9c-0.3,0-0.6,0-0.9-0.1c-4.2-0.8-12.9-6-14.8-9c-1.4-2.1-2.2-5.4-1.3-7.1c0.3-0.7,1-1.1,1.8-1.1
		c2.5,0,7.1,2.8,18,9.6l0,0c1.4,0.8,1.8,2.9,1.1,4.8C335.5,354.7,334,355.8,332.3,355.9z M317,339.7c-0.3,0-0.7,0.2-0.8,0.5
		c-0.6,1.2,0,4.1,1.3,6c1.7,2.5,9.8,7.7,14.1,8.5c1.5,0.3,3-0.5,3.5-2c0.6-1.4,0.3-3-0.6-3.5l0,0C324.7,343.1,319.3,339.7,317,339.7
		z"></path><path class="st0" d="M364.6,345.2c0.3-2.2-0.7-4.3-2.4-5.6c-14.9-10.6-21.8-20-26.2-29.6c-4.6-10.2-9.3-17.8-14.8-18.2h-2.1
		L343,362c0,0,3.5,5.9,11.7,5C360.9,366.3,363.7,352.1,364.6,345.2z"></path><path class="st1" d="M353.1,367.6c-4.2,0.1-8.1-1.9-10.5-5.3c0,0,0-0.1,0-0.1l-23.9-70.1c-0.1-0.2,0-0.3,0.1-0.5
		c0.1-0.1,0.3-0.2,0.4-0.2h2.1c6.2,0.4,11,9.1,15.3,18.5c3.4,7.5,9.5,17.6,26,29.3c2,1.4,3,3.7,2.7,6.1l0,0
		c-1.1,8-3.9,21.5-10.3,22.2C354.2,367.6,353.6,367.6,353.1,367.6z M343.5,361.7c0.4,0.6,3.7,5.5,11.1,4.7
		c5.9-0.6,8.6-15.1,9.4-21.2l0,0c0.3-2-0.6-4-2.2-5.1c-13.1-9.3-21.2-18.4-26.4-29.7c-3.9-8.6-8.7-17.5-14.3-17.9h-1.3L343.5,361.7z
		 M364.6,345.2L364.6,345.2z"></path><path class="st0" d="M335.1,340.2c-11.8-7.4-17.2-10.7-19.9-10.7s-2.1,5.1,0,8.2s11.5,8.9,16.2,9.8
		C336.2,348.4,337.8,341.9,335.1,340.2z"></path><path class="st1" d="M332.3,348.1c-0.4,0-0.7,0-1.1-0.1c-4.8-0.9-14.4-6.7-16.6-10c-1.5-2.3-2.5-6-1.5-7.9c0.4-0.7,1.1-1.2,1.9-1.1
		c2.8,0,7.9,3.1,20.2,10.8c1.5,0.9,2,3.2,1.2,5.3C335.9,346.9,334.2,348.1,332.3,348.1z M315.2,330.1c-0.4,0-0.8,0.2-1,0.6
		c-0.7,1.4,0,4.6,1.4,6.8c2,3.1,11.4,8.7,15.9,9.6c1.7,0.4,3.4-0.6,4-2.3c0.6-1.6,0.3-3.4-0.7-4l0,0
		C323.8,333.8,317.8,330,315.2,330.1L315.2,330.1z"></path><path class="st0" d="M333.6,331.2c-11.8-7.4-17.2-10.7-19.9-10.7c-2.7,0-2.1,5.1,0,8.2c2.1,3.1,11.5,8.9,16.2,9.8
		S336.3,332.9,333.6,331.2z"></path><path class="st1" d="M330.9,339.1c-0.4,0-0.7,0-1.1-0.1c-4.8-0.9-14.4-6.8-16.6-10c-1.5-2.3-2.5-6-1.5-7.9c0.4-0.7,1.1-1.2,1.9-1.1
		c2.8,0,7.9,3.1,20.2,10.8l0,0c1.5,0.9,2,3.2,1.2,5.3C334.4,337.8,332.8,339,330.9,339.1z M313.7,321c-0.4,0-0.8,0.2-1,0.6
		c-0.7,1.4-0.1,4.6,1.4,6.8c2,3.1,11.4,8.7,15.9,9.6c1.7,0.4,3.4-0.6,4-2.3c0.6-1.6,0.3-3.4-0.7-4l0,0
		C322.4,324.7,316.4,321,313.7,321L313.7,321z"></path><path class="st0" d="M331.6,321.1c-11.8-7.4-17.2-10.7-19.9-10.7c-2.7,0-2.1,5.1,0,8.2c2.1,3.1,11.5,8.9,16.2,9.8
		C332.7,329.3,334.3,322.8,331.6,321.1z"></path><path class="st1" d="M328.9,329c-0.4,0-0.7,0-1.1-0.1c-4.8-0.9-14.4-6.7-16.6-10c-1.5-2.3-2.5-6-1.5-7.9c0.4-0.7,1.1-1.2,1.9-1.1
		c2.8,0,7.9,3.1,20.2,10.8c1.5,0.9,2,3.2,1.1,5.3C332.4,327.8,330.8,329,328.9,329z M311.7,311c-0.4,0-0.8,0.2-1,0.6
		c-0.7,1.4-0.1,4.6,1.4,6.8c2,3,11.4,8.7,15.9,9.6c1.7,0.4,3.4-0.6,4-2.3c0.6-1.6,0.3-3.4-0.7-4l0,0
		C320.4,314.7,314.4,310.9,311.7,311L311.7,311z"></path><path class="st3" d="M332.8,221.4c-12.6-18.4-37.8-23.2-56.2-10.5c-18.4,12.6-23.2,37.8-10.5,56.2c7.5,11,20,17.6,33.4,17.6
		c2.1,0,4.2-0.2,6.2-0.5c0.6-0.1,1.2-0.2,1.8-0.3c2.3-0.4,4.5-1.1,6.6-1.9c0.5-0.2,1-0.4,1.5-0.6c7-3,13-8,17.3-14.3
		C342.2,253.4,342.2,235.2,332.8,221.4L332.8,221.4z M312.6,273.1c-3.1,1.4-6.4,2.3-9.8,2.7c-1.1,0.1-2.3,0.2-3.4,0.2
		c-17.5,0-31.6-14.2-31.6-31.6s14.2-31.6,31.6-31.6s31.6,14.2,31.6,31.6C331.1,256.7,323.9,267.9,312.6,273.1L312.6,273.1z"></path></g><g id="keywoard-bar-1"><path class="st0" d="M286.4,298.8c0,6.4-5.2,11.6-11.6,11.6h-59.2v-23.2h59.2C281.2,287.2,286.4,292.4,286.4,298.8
		C286.4,298.8,286.4,298.8,286.4,298.8z"></path><path class="st1" d="M274.8,310.9h-59.2c-0.3,0-0.5-0.2-0.5-0.5v-23.2c0-0.3,0.2-0.5,0.5-0.5h59.2c6.7,0,12.1,5.4,12.1,12.1
		C287,305.5,281.5,310.9,274.8,310.9C274.8,310.9,274.8,310.9,274.8,310.9z M216.2,309.8h58.6c6.1,0.2,11.2-4.6,11.4-10.7
		s-4.6-11.2-10.7-11.4c-0.2,0-0.5,0-0.7,0h-58.6V309.8z"></path><path class="st2" d="M215.6,287.2v23.2h-11.2c-6.4-0.2-11.4-5.5-11.3-12c0.2-6.1,5.1-11.1,11.3-11.3H215.6z"></path><path class="st1" d="M215.6,310.9h-11.2c-6.7,0-12.1-5.4-12.1-12.1c0-3.2,1.3-6.3,3.6-8.6c2.3-2.3,5.4-3.6,8.6-3.6h11.2
		c0.3,0,0.5,0.2,0.5,0.5v23.2C216.2,310.7,215.9,310.9,215.6,310.9z M204.4,287.7c-6.1,0.2-10.9,5.3-10.7,11.4
		c0.2,5.9,4.9,10.6,10.7,10.7h10.6v-22.2H204.4z"></path><path class="st1" d="M204.2,304.4c-0.3,0-0.5-0.2-0.5-0.5v-10.1c0-0.3,0.2-0.5,0.5-0.5c0.3,0,0.5,0.2,0.5,0.5v10.1
		C204.8,304.1,204.5,304.4,204.2,304.4z"></path><path class="st1" d="M209.3,299.3h-10.1c-0.3,0-0.5-0.2-0.5-0.5s0.2-0.5,0.5-0.5h10.1c0.3,0,0.5,0.2,0.5,0.5
		S209.6,299.3,209.3,299.3z"></path></g><g id="keywoard-bar-2"><path class="st0" d="M411.4,203.8c0,6.4-5.2,11.6-11.6,11.6h-59.1v-23.2h59.2C406.3,192.3,411.4,197.4,411.4,203.8z"></path><path class="st1" d="M399.8,216h-59.1c-0.3,0-0.5-0.2-0.5-0.5v-23.2c0-0.3,0.2-0.5,0.5-0.5h59.2c6.7,0,12.1,5.4,12.1,12.1
		C412,210.5,406.6,216,399.8,216L399.8,216z M341.2,214.9h58.6c6.1,0.2,11.2-4.6,11.4-10.7c0.2-6.1-4.6-11.2-10.7-11.4
		c-0.2,0-0.5,0-0.7,0h-58.6V214.9z"></path><path class="st2" d="M340.7,192.2v23.2h-11.2c-6.4,0.2-11.8-4.8-12-11.3c-0.2-6.4,4.8-11.8,11.3-12c0.2,0,0.5,0,0.7,0H340.7z"></path><path class="st1" d="M340.7,216h-11.2c-6.7,0-12.1-5.5-12.1-12.2c0-3.2,1.3-6.3,3.6-8.6c2.3-2.3,5.4-3.6,8.6-3.5h11.2
		c0.3,0,0.5,0.2,0.5,0.5v23.2C341.2,215.7,341,216,340.7,216z M329.5,192.8c-6.1,0-11.1,4.9-11.1,11c0,0,0,0,0,0.1
		c0,6.1,5,11.1,11.1,11.1h10.6v-22.2H329.5z"></path><path class="st1" d="M329.3,209.4c-0.3,0-0.5-0.2-0.5-0.5v-10.1c0-0.3,0.2-0.5,0.5-0.5c0.3,0,0.5,0.2,0.5,0.5v10.1
		C329.8,209.2,329.6,209.4,329.3,209.4z"></path><path class="st1" d="M334.3,204.4h-10.1c-0.3,0-0.5-0.2-0.5-0.5s0.2-0.5,0.5-0.5h10.1c0.3,0,0.5,0.2,0.5,0.5
		S334.6,204.4,334.3,204.4z"></path></g><g id="graphic"><path class="st0" d="M66.8,253.4h108.7c5.3,0,9.5,4.3,9.5,9.5v95c0,5.3-4.3,9.5-9.5,9.5H66.8c-5.3,0-9.5-4.3-9.5-9.5v-95
		C57.3,257.7,61.5,253.4,66.8,253.4z"></path><path class="st1" d="M175.5,367.9H66.8c-5.5,0-10-4.5-10.1-10v-94.9c0-5.5,4.5-10,10.1-10h108.7c5.5,0,10,4.5,10.1,10v94.9
		C185.5,363.4,181,367.9,175.5,367.9z M66.8,253.9c-5,0-9,4-9,9v94.9c0,5,4,9,9,9h108.7c5,0,9-4,9-9v-94.9c0-5-4-9-9-9H66.8z"></path><polyline class="st0" points="75.5,271.6 75.5,349.4 171.3,349.4 	"></polyline><path class="st1" d="M171.3,349.9H75.5c-0.3,0-0.5-0.2-0.5-0.5v-77.8c0-0.3,0.2-0.5,0.5-0.5c0.3,0,0.5,0.2,0.5,0.5v77.3h95.2
		c0.3,0,0.5,0.2,0.5,0.5S171.6,349.9,171.3,349.9z"></path><g><defs><path id="SVGID_1_" d="M78.9,317.1l24.7-9.3l16.9-6.9c4.1-1.6,8.7-1.3,12.4,1l7.5,4.6c5.1,3.2,11.7,2.6,16.3-1.4l19.1-16.6v55.5
				h-97V317.1z"></path></defs><clipPath id="SVGID_2_"><use xlink:href="#SVGID_1_" style="overflow: visible;"></use></clipPath><g class="st4"><path class="st2" d="M82.7,344.6c-0.3,0-0.5-0.2-0.5-0.5v-56.9c0-0.3,0.2-0.5,0.5-0.5s0.5,0.2,0.5,0.5v56.9
				C83.2,344.4,83,344.6,82.7,344.6z"></path><path class="st2" d="M86.8,344.6c-0.3,0-0.5-0.2-0.5-0.5v-56.9c0-0.3,0.2-0.5,0.5-0.5c0.3,0,0.5,0.2,0.5,0.5v56.9
				C87.3,344.4,87.1,344.6,86.8,344.6z"></path><path class="st2" d="M90.7,344.6c-0.3,0-0.5-0.2-0.5-0.5v-56.9c0-0.3,0.2-0.5,0.5-0.5c0.3,0,0.5,0.2,0.5,0.5v56.9
				C91.3,344.4,91,344.6,90.7,344.6z"></path><path class="st2" d="M94.8,344.6c-0.3,0-0.5-0.2-0.5-0.5v-56.9c0-0.3,0.2-0.5,0.5-0.5s0.5,0.2,0.5,0.5v56.9
				C95.3,344.4,95.1,344.6,94.8,344.6z"></path><path class="st2" d="M98.8,344.6c-0.3,0-0.5-0.2-0.5-0.5v-56.9c0-0.3,0.2-0.5,0.5-0.5c0.3,0,0.5,0.2,0.5,0.5v56.9
				C99.3,344.4,99.1,344.6,98.8,344.6z"></path><path class="st2" d="M102.8,344.6c-0.3,0-0.5-0.2-0.5-0.5v-56.9c0-0.3,0.2-0.5,0.5-0.5s0.5,0.2,0.5,0.5v56.9
				C103.3,344.4,103.1,344.6,102.8,344.6z"></path><path class="st2" d="M106.8,344.6c-0.3,0-0.5-0.2-0.5-0.5v-56.9c0-0.3,0.2-0.5,0.5-0.5c0.3,0,0.5,0.2,0.5,0.5v56.9
				C107.4,344.4,107.1,344.6,106.8,344.6z"></path><path class="st2" d="M110.9,344.6c-0.3,0-0.5-0.2-0.5-0.5v-56.9c0-0.3,0.2-0.5,0.5-0.5s0.5,0.2,0.5,0.5v56.9
				C111.4,344.4,111.2,344.6,110.9,344.6z"></path><path class="st2" d="M114.9,344.6c-0.3,0-0.5-0.2-0.5-0.5v-56.9c0-0.3,0.2-0.5,0.5-0.5c0.3,0,0.5,0.2,0.5,0.5v56.9
				C115.4,344.4,115.2,344.6,114.9,344.6z"></path><path class="st2" d="M118.9,344.6c-0.3,0-0.5-0.2-0.5-0.5v-56.9c0-0.3,0.2-0.5,0.5-0.5s0.5,0.2,0.5,0.5v56.9
				C119.5,344.4,119.2,344.6,118.9,344.6z"></path><path class="st2" d="M123,344.6c-0.3,0-0.5-0.2-0.5-0.5v-56.9c0-0.3,0.2-0.5,0.5-0.5c0.3,0,0.5,0.2,0.5,0.5v56.9
				C123.5,344.4,123.2,344.6,123,344.6z"></path><path class="st2" d="M127,344.6c-0.3,0-0.5-0.2-0.5-0.5v-56.9c0-0.3,0.2-0.5,0.5-0.5s0.5,0.2,0.5,0.5v56.9
				C127.5,344.4,127.3,344.6,127,344.6z"></path><path class="st2" d="M131,344.6c-0.3,0-0.5-0.2-0.5-0.5v-56.9c0-0.3,0.2-0.5,0.5-0.5s0.5,0.2,0.5,0.5v56.9
				C131.5,344.4,131.3,344.6,131,344.6z"></path><path class="st2" d="M135,344.6c-0.3,0-0.5-0.2-0.5-0.5v-56.9c0-0.3,0.2-0.5,0.5-0.5c0.3,0,0.5,0.2,0.5,0.5v56.9
				C135.6,344.4,135.3,344.6,135,344.6z"></path><path class="st2" d="M139.1,344.6c-0.3,0-0.5-0.2-0.5-0.5v-56.9c0-0.3,0.2-0.5,0.5-0.5c0.3,0,0.5,0.2,0.5,0.5v56.9
				C139.6,344.4,139.4,344.6,139.1,344.6z"></path><path class="st2" d="M143.1,344.6c-0.3,0-0.5-0.2-0.5-0.5v-56.9c0-0.3,0.2-0.5,0.5-0.5s0.5,0.2,0.5,0.5v56.9
				C143.6,344.4,143.4,344.6,143.1,344.6z"></path><path class="st2" d="M147.1,344.6c-0.3,0-0.5-0.2-0.5-0.5v-56.9c0-0.3,0.2-0.5,0.5-0.5s0.5,0.2,0.5,0.5v56.9
				C147.6,344.4,147.4,344.6,147.1,344.6z"></path><path class="st2" d="M151.1,344.6c-0.3,0-0.5-0.2-0.5-0.5v-56.9c0-0.3,0.2-0.5,0.5-0.5s0.5,0.2,0.5,0.5v56.9
				C151.7,344.4,151.4,344.6,151.1,344.6z"></path><path class="st2" d="M155.2,344.6c-0.3,0-0.5-0.2-0.5-0.5v-56.9c0-0.3,0.2-0.5,0.5-0.5c0.3,0,0.5,0.2,0.5,0.5v56.9
				C155.7,344.4,155.5,344.6,155.2,344.6z"></path><path class="st2" d="M159.2,344.6c-0.3,0-0.5-0.2-0.5-0.5v-56.9c0-0.3,0.2-0.5,0.5-0.5c0.3,0,0.5,0.2,0.5,0.5v56.9
				C159.7,344.4,159.5,344.6,159.2,344.6z"></path><path class="st2" d="M163.3,344.6c-0.3,0-0.5-0.2-0.5-0.5v-56.9c0-0.3,0.2-0.5,0.5-0.5c0.3,0,0.5,0.2,0.5,0.5v56.9
				C163.8,344.4,163.5,344.6,163.3,344.6z"></path><path class="st2" d="M167.3,344.6c-0.3,0-0.5-0.2-0.5-0.5v-56.9c0-0.3,0.2-0.5,0.5-0.5s0.5,0.2,0.5,0.5v56.9
				C167.8,344.4,167.5,344.6,167.3,344.6z"></path><path class="st2" d="M171.3,344.6c-0.3,0-0.5-0.2-0.5-0.5v-56.9c0-0.3,0.2-0.5,0.5-0.5s0.5,0.2,0.5,0.5v56.9
				C171.8,344.4,171.6,344.6,171.3,344.6z"></path></g></g><path class="st1" d="M82.7,316.2c-0.2,0-0.4-0.1-0.5-0.4c-0.1-0.3,0-0.6,0.3-0.7c0,0,0,0,0,0l21-7.9l16.8-6.9
		c4.2-1.7,9-1.3,12.9,1.1l7.5,4.6c4.9,3,11.3,2.5,15.7-1.3l14.5-12.5c0.2-0.2,0.5-0.2,0.8,0c0.2,0.2,0.2,0.5,0,0.8c0,0,0,0,0,0
		l-14.5,12.5c-4.7,4.1-11.6,4.7-16.9,1.4l-7.5-4.6c-3.6-2.2-8-2.5-12-1l-16.9,6.9l-21,7.9C82.8,316.2,82.8,316.2,82.7,316.2z"></path><circle class="st2" cx="82.7" cy="316.4" r="2.2"></circle><path class="st1" d="M82.7,319c-1.5,0-2.7-1.2-2.7-2.7s1.2-2.7,2.7-2.7c1.5,0,2.7,1.2,2.7,2.7S84.2,319,82.7,319L82.7,319z
		 M82.7,314.7c-0.9,0-1.6,0.7-1.6,1.6s0.7,1.6,1.6,1.6s1.6-0.7,1.6-1.6S83.6,314.7,82.7,314.7L82.7,314.7z"></path><circle class="st2" cx="103.7" cy="307.8" r="2.2"></circle><path class="st1" d="M103.8,310.5c-0.4,0-0.9-0.1-1.2-0.3c-0.6-0.3-1.1-0.9-1.3-1.6c-0.4-1.4,0.3-2.9,1.8-3.4
		c1.4-0.4,2.9,0.3,3.4,1.8l0,0c0.4,1.4-0.4,2.9-1.8,3.4C104.3,310.5,104,310.5,103.8,310.5z M103.8,306.2c-0.2,0-0.3,0-0.5,0.1
		c-0.9,0.3-1.3,1.2-1.1,2c0.1,0.4,0.4,0.8,0.8,1c0.4,0.2,0.8,0.2,1.3,0.1c0.9-0.3,1.3-1.2,1.1-2.1l0,0
		C105.1,306.6,104.5,306.2,103.8,306.2z"></path><circle class="st2" cx="124.8" cy="300.3" r="2.2"></circle><path class="st1" d="M124.8,303c-1.5,0-2.7-1.2-2.7-2.7c0-1.5,1.2-2.7,2.7-2.7c1.2,0,2.2,0.8,2.6,1.9l0,0c0.4,1.4-0.3,2.9-1.8,3.4
		C125.4,303,125.1,303,124.8,303z M124.8,298.7c-0.2,0-0.3,0-0.5,0.1c-0.9,0.3-1.4,1.2-1.1,2.1s1.2,1.4,2.1,1.1l0,0
		c0.9-0.3,1.3-1.2,1.1-2.1l0,0C126.2,299.2,125.6,298.7,124.8,298.7L124.8,298.7z"></path><circle class="st2" cx="148" cy="308.4" r="2.2"></circle><path class="st1" d="M148,311.1c-1.5,0-2.7-1.2-2.7-2.7c0-1.5,1.2-2.7,2.7-2.7c1.2,0,2.2,0.8,2.6,1.9l0,0c0.4,1.4-0.4,2.9-1.8,3.4
		C148.5,311,148.2,311.1,148,311.1z M148,306.7c-0.2,0-0.3,0-0.5,0.1c-0.9,0.3-1.3,1.2-1.1,2.1c0.3,0.9,1.2,1.3,2.1,1.1
		c0.9-0.3,1.3-1.2,1.1-2.1l0,0C149.3,307.2,148.7,306.7,148,306.7L148,306.7z"></path><circle class="st2" cx="171.3" cy="292.9" r="2.2"></circle><path class="st1" d="M171.3,295.6c-0.4,0-0.9-0.1-1.2-0.3c-0.6-0.3-1.1-0.9-1.3-1.6c-0.2-0.7-0.1-1.4,0.2-2.1
		c0.7-1.3,2.3-1.8,3.7-1.1c1.3,0.7,1.8,2.3,1.1,3.6C173.2,295,172.3,295.6,171.3,295.6L171.3,295.6z M171.3,291.2
		c-0.2,0-0.3,0-0.5,0.1c-0.9,0.3-1.3,1.2-1.1,2c0,0,0,0,0,0c0.3,0.9,1.2,1.3,2.1,1.1c0.9-0.3,1.3-1.2,1.1-2.1l0,0l0,0
		C172.6,291.7,172,291.2,171.3,291.2L171.3,291.2z"></path></g><g id="plant"><path class="st2" d="M105.2,192.9c8.1-4.8,7.9-16.4,7.5-22.2c-0.4-5.7-3.8-14.1-7.5-17.9c0,0-7.6,8.7-7.9,20.1
		C97,184.2,105.2,192.9,105.2,192.9z"></path><path class="st1" d="M105.2,219.9c-0.3,0-0.5-0.2-0.5-0.5v-60.2c0-0.3,0.2-0.5,0.5-0.5c0.3,0,0.5,0.2,0.5,0.5v60.2
		C105.7,219.6,105.5,219.9,105.2,219.9z"></path><path class="st0" d="M90,199.7c2.2,4.8-3,11.4-13.7,16.2c-10.7,4.9-14.6,6.1-14.6,6.1s1.5-10.4,8.5-18.2
		C77.1,196,86.8,195.4,90,199.7z"></path><path class="st1" d="M61.6,222.6c-0.1,0-0.2,0-0.3-0.1c-0.1-0.1-0.2-0.3-0.2-0.5c0.1-0.4,1.6-10.7,8.6-18.5
		c4.9-5.4,10.8-7.1,14.6-6.9c2.4,0,4.6,1,6.1,2.9v0.1c0.7,1.6,0.7,3.4,0.1,5c-1.5,4.2-6.7,8.5-14.1,11.9c-10.6,4.8-14.5,6-14.7,6.1
		L61.6,222.6z M83.6,197.6c-3.6,0-8.8,1.7-13.2,6.6c-5.6,6.3-7.6,14.4-8.2,17.1c1.6-0.6,5.9-2.1,13.7-5.8c7.1-3.3,12-7.4,13.5-11.3
		c0.6-1.3,0.6-2.8,0-4.2c-1.3-1.6-3.3-2.4-5.3-2.4L83.6,197.6z"></path><path class="st0" d="M114.1,197.3c9.8,5.3,23.5,2.2,30.6-4.4c-4.8-4.8-11.6-6.8-18.2-5.5C114.8,189.4,114.1,197.3,114.1,197.3z"></path><path class="st1" d="M125.5,200.5c-4,0.1-8-0.9-11.6-2.8c-0.2-0.1-0.3-0.3-0.3-0.5c0-0.1,0.9-8.3,12.8-10.4
		c6.8-1.3,13.8,0.8,18.7,5.7c0.2,0.2,0.2,0.5,0,0.7C140.5,197.5,133,200.5,125.5,200.5z M114.7,197c9.7,5,22.5,1.8,29.2-4.1
		c-4.7-4.3-11.1-6.2-17.3-5C116.7,189.6,115,195.5,114.7,197z"></path><path class="st1" d="M106.7,222.6c-0.1,0-0.2,0-0.3-0.1l-1.5-0.8c-0.2-0.1-0.3-0.3-0.3-0.5c0-0.1,0.3-13.2-8-19.1
		c-9.3-6.7-23.1,7.2-25.8,10l-5.7,6.1c-0.2,0.2-0.5,0.2-0.7,0c0,0,0,0,0,0c-0.2-0.2-0.2-0.5,0-0.8c0,0,0,0,0,0l5.7-6.1
		c3.9-4.2,17.4-17.3,27.2-10.2c8.1,5.8,8.5,17.6,8.5,19.7l0.4,0.2c0.2-3.7,1.2-18,7.6-24.2c7.3-7.1,22.6-5.1,23.3-5
		c0.3,0,0.5,0.3,0.5,0.6c0,0.3-0.3,0.5-0.6,0.4c0,0,0,0,0,0c-0.1,0-15.5-2-22.4,4.7c-6.9,6.8-7.3,24.2-7.3,24.4
		c0,0.2-0.1,0.4-0.3,0.4C106.9,222.5,106.8,222.6,106.7,222.6z"></path><path class="st2" d="M87.4,217h34.5c1.2,0,2.1,1,2.1,2.2c0,0.1,0,0.3-0.1,0.4l-8.9,33.2H94.5l-9.1-33.2c-0.3-1.1,0.4-2.3,1.6-2.6
		C87.1,217.1,87.2,217,87.4,217z"></path><path class="st1" d="M119.7,226.5H95.5c-0.3,0-0.5-0.2-0.5-0.5c0-0.3,0.2-0.5,0.5-0.5h24.2c0.3,0,0.5,0.2,0.5,0.5
		S120,226.5,119.7,226.5z"></path></g></svg>