<svg transform="scale(1)" version="1.1" id="_x30_269_x5F_Landing_x5F_Page" xmlns="http://www.w3.org/2000/svg" xmlns:xlink="http://www.w3.org/1999/xlink" x="0px" y="0px" viewBox="0 0 500 500" xml:space="preserve" class="show_show__wrapper__graphic__5Waiy "><title>React</title><style type="text/css">
	.st0{fill:#4e9edd;}
	.st1{fill:#003566;}
	.st2{fill:#F7F7F7;}
</style><g id="UI"><rect class="st0" x="58.4" y="101.5" width="398.9" height="309"></rect><path class="st1" d="M457.4,411H58.4c-0.3,0-0.5-0.2-0.5-0.5v-309c0-0.3,0.2-0.5,0.5-0.5h398.9c0.3,0,0.5,0.2,0.5,0.5v309
		C457.9,410.8,457.6,411,457.4,411z M58.9,410h397.9V102H58.9V410z"></path><rect class="st2" x="51.7" y="93.9" width="398.9" height="309"></rect><path class="st1" d="M450.6,403.4H51.7c-0.3,0-0.5-0.2-0.5-0.5v-309c0-0.3,0.2-0.5,0.5-0.5h398.9c0.3,0,0.5,0.2,0.5,0.5v309
		C451.1,403.2,450.9,403.4,450.6,403.4z M52.2,402.4h397.9v-308H52.2L52.2,402.4z"></path><path class="st1" d="M94,124.2H79.7c-0.3,0-0.5-0.2-0.5-0.5s0.2-0.5,0.5-0.5H94c0.3,0,0.5,0.2,0.5,0.5
		C94.5,124,94.3,124.2,94,124.2z"></path><path class="st1" d="M94,131.1H79.7c-0.3,0-0.5-0.2-0.5-0.5s0.2-0.5,0.5-0.5H94c0.3,0,0.5,0.2,0.5,0.5
		C94.5,130.8,94.3,131.1,94,131.1z"></path><path class="st1" d="M94,137.9H79.7c-0.3,0-0.5-0.2-0.5-0.5s0.2-0.5,0.5-0.5H94c0.3,0,0.5,0.2,0.5,0.5S94.3,137.9,94,137.9z"></path><path class="st1" d="M371.8,141.7H130.5c-5.7,0-10.3-4.6-10.3-10.3v-1.6c0-5.7,4.6-10.3,10.3-10.3h241.3c5.7,0,10.3,4.6,10.3,10.3
		v1.6C382.1,137.1,377.5,141.7,371.8,141.7z M130.5,120.5c-5.1,0-9.3,4.2-9.3,9.3v1.6c0,5.1,4.2,9.3,9.3,9.3h241.4
		c5.1,0,9.3-4.2,9.3-9.3v-1.6c0-5.1-4.2-9.3-9.3-9.3L130.5,120.5z"></path><path class="st1" d="M408.9,135.3c-3.5,0.1-6.4-2.7-6.5-6.2c-0.1-3.5,2.7-6.4,6.2-6.5c3.5-0.1,6.4,2.7,6.5,6.2c0,0,0,0.1,0,0.1
		C415.1,132.4,412.3,135.2,408.9,135.3z M408.9,123.5c-3-0.1-5.4,2.3-5.5,5.2c-0.1,3,2.3,5.4,5.2,5.5c3,0.1,5.4-2.3,5.5-5.2
		c0,0,0-0.1,0-0.1C414.1,126,411.8,123.6,408.9,123.5z"></path><path class="st1" d="M418.1,137.9c-0.1,0-0.3-0.1-0.4-0.1l-4.7-4.9c-0.2-0.2-0.2-0.5,0-0.7c0.2-0.2,0.5-0.2,0.7,0c0,0,0,0,0,0
		l4.7,4.9c0.2,0.2,0.2,0.5,0,0.7c0,0,0,0,0,0C418.4,137.9,418.2,137.9,418.1,137.9z"></path><circle class="st2" cx="330.4" cy="271.2" r="67.3"></circle><path class="st1" d="M330.4,339.1c-37.5,0-67.8-30.4-67.8-67.8s30.4-67.8,67.8-67.8s67.8,30.4,67.8,67.8v0
		C398.2,308.7,367.9,339,330.4,339.1z M330.4,204.4c-36.9,0-66.8,29.9-66.8,66.8s29.9,66.8,66.8,66.8s66.8-29.9,66.8-66.8
		C397.2,234.4,367.3,204.5,330.4,204.4L330.4,204.4z"></path><g id="laptop"><polygon class="st2" points="273.9,295.5 387,295.5 414.1,320.1 246.8,320.1 		"></polygon><path class="st1" d="M414.1,320.6H246.8c-0.3,0-0.5-0.2-0.5-0.5c0-0.1,0.1-0.3,0.2-0.4l27.1-24.6c0.1-0.1,0.2-0.1,0.3-0.1H387
			c0.1,0,0.2,0,0.3,0.1l27.1,24.6c0.2,0.2,0.2,0.5,0,0.7C414.3,320.5,414.2,320.6,414.1,320.6L414.1,320.6z M248.1,319.6h164.7
			l-26-23.6H274L248.1,319.6z"></path><polygon class="st0" points="361.3,319.8 299.6,319.8 305.9,312.4 355,312.4 		"></polygon><polygon class="st0" points="329.6,298.5 321.8,298.5 321.3,300.7 329.6,300.7 		"></polygon><polygon class="st0" points="331,300.7 339.2,300.7 338.7,298.5 331,298.5 		"></polygon><polygon class="st0" points="320.2,305.6 329.7,305.6 329.6,302.1 321,302.1 		"></polygon><polygon class="st0" points="330.9,305.6 340.3,305.6 339.5,302.1 330.9,302.1 		"></polygon><polygon class="st0" points="340.7,300.7 348.8,300.7 347.8,298.5 340.2,298.5 		"></polygon><polygon class="st0" points="319.5,302.1 311,302.1 309.5,305.6 318.8,305.6 		"></polygon><polygon class="st0" points="288,305.6 296.9,305.6 299.2,302.1 291.1,302.1 		"></polygon><polygon class="st0" points="311.6,300.7 319.8,300.7 320.3,298.5 312.6,298.5 		"></polygon><polygon class="st0" points="309.3,302.1 301,302.1 298.8,305.6 307.8,305.6 		"></polygon><polygon class="st0" points="361.6,305.6 359.3,302.1 351.1,302.1 352.6,305.6 		"></polygon><polygon class="st0" points="341,302.1 341.8,305.6 350.9,305.6 349.4,302.1 		"></polygon><polygon class="st0" points="379.8,300.7 386.7,300.7 384.2,298.5 377.4,298.5 		"></polygon><polygon class="st0" points="372.2,305.6 369.2,302.1 361.2,302.1 363.4,305.6 		"></polygon><polygon class="st0" points="382.9,305.6 379.1,302.1 371.2,302.1 374.3,305.6 		"></polygon><polygon class="st0" points="360.2,300.7 367.9,300.7 366,298.5 358.8,298.5 		"></polygon><polygon class="st0" points="350.5,300.7 358.3,300.7 356.9,298.5 349.5,298.5 		"></polygon><polygon class="st0" points="368.1,298.5 370,300.7 377.5,300.7 375.1,298.5 		"></polygon><polygon class="st0" points="302,300.7 309.9,300.7 310.9,298.5 303.4,298.5 		"></polygon><polygon class="st0" points="362.4,307 353.2,307 354.5,310 364.4,310 		"></polygon><polygon class="st0" points="292.3,300.7 300.1,300.7 301.5,298.5 294.2,298.5 		"></polygon><polygon class="st0" points="384.3,307 375.4,307 378,310 387.6,310 		"></polygon><polygon class="st0" points="280.3,300.7 282.7,298.5 276.6,298.5 274.1,300.7 		"></polygon><polygon class="st0" points="388.3,302.1 381.4,302.1 385.1,305.6 392.2,305.6 		"></polygon><polygon class="st0" points="373.4,307 364.3,307 366.2,310 376,310 		"></polygon><polygon class="st0" points="282.2,310 284.8,307 275.8,307 272.6,310 		"></polygon><polygon class="st0" points="268.6,305.6 275,305.6 278.8,302.1 272.5,302.1 		"></polygon><polygon class="st0" points="277.3,305.6 286,305.6 289,302.1 281.1,302.1 		"></polygon><polygon class="st0" points="282.6,300.7 290.2,300.7 292.1,298.5 285,298.5 		"></polygon><polygon class="st0" points="296,307 286.9,307 284.2,310 294.1,310 		"></polygon><polygon class="st0" points="307.3,307 297.9,307 295.9,310 306,310 		"></polygon><polygon class="st0" points="308.9,307 351.5,307 352.8,310 307.6,310 		"></polygon><path class="st2" d="M387.8,220.8l-0.8,72.9c0,1-0.8,1.8-1.8,1.8H275.7c-1,0-1.8-0.8-1.8-1.8l-0.7-72.9c0-1,0.8-1.9,1.8-1.9
			c0,0,0,0,0,0h111C387,218.9,387.8,219.8,387.8,220.8z"></path><path class="st1" d="M385.2,296H275.7c-1.3,0-2.3-1-2.3-2.3l-0.7-72.9c0-1.3,1-2.4,2.3-2.4c0,0,0,0,0,0h111c0.6,0,1.2,0.3,1.7,0.7
			c0.4,0.4,0.7,1,0.7,1.7l-0.7,72.9C387.5,295,386.5,296,385.2,296z M274.9,219.4c-0.4,0-0.7,0.1-1,0.4c-0.3,0.3-0.4,0.6-0.4,1
			l0.7,72.9c0,0.7,0.6,1.3,1.3,1.3h109.5c0.7,0,1.3-0.6,1.3-1.3l0.7-72.9l0,0c0-0.4-0.1-0.7-0.4-1c-0.2-0.3-0.6-0.4-1-0.4H274.9z"></path><polygon class="st0" points="276.7,292.6 276,221.8 384.9,221.8 384.1,292.6 		"></polygon><path class="st1" d="M384.1,293.1H276.7c-0.3,0-0.5-0.2-0.5-0.5l-0.7-70.9c0-0.3,0.2-0.5,0.5-0.5h108.9c0.3,0,0.5,0.2,0.5,0.5
			l-0.7,70.9C384.6,292.9,384.4,293.2,384.1,293.1z M277.1,292.1h106.5l0.7-69.9H276.5L277.1,292.1z"></path><rect class="st0" x="246.8" y="320.1" width="167.3" height="3.5"></rect><path class="st1" d="M414.1,324.1H246.8c-0.3,0-0.5-0.2-0.5-0.5v-3.5c0-0.3,0.2-0.5,0.5-0.5h167.3c0.3,0,0.5,0.2,0.5,0.5v3.5
			C414.6,323.9,414.3,324.1,414.1,324.1z M247.3,323.1h166.3v-2.5H247.3V323.1z"></path><path class="st2" d="M342.8,289.8c-0.2,0-0.3-0.1-0.4-0.2l-27-47.9c-1.4-2.5-4.5-3.3-7-2c-0.5,0.3-0.9,0.6-1.2,1l-25.5,27.1
			c-0.2,0.2-0.5,0.2-0.7,0c-0.2-0.2-0.2-0.5,0-0.7l25.6-27.1c2.3-2.5,6.2-2.6,8.6-0.3c0.5,0.4,0.8,0.9,1.1,1.5l27,47.9
			c0.1,0.2,0.1,0.6-0.2,0.7C342.9,289.8,342.8,289.8,342.8,289.8z"></path><path class="st2" d="M380.2,289.8c-0.2,0-0.3-0.1-0.4-0.2l-18.4-32.6c-1.4-2.5-4.5-3.3-7-2c-0.5,0.3-0.9,0.6-1.2,1l-16.9,18
			c-0.2,0.2-0.5,0.2-0.7,0c-0.2-0.2-0.2-0.5,0-0.7l16.9-18c2.3-2.5,6.2-2.6,8.6-0.3c0.5,0.4,0.8,0.9,1.1,1.5l18.4,32.6
			c0.1,0.2,0,0.5-0.2,0.7C380.4,289.7,380.3,289.8,380.2,289.8z"></path><path class="st2" d="M337,250.6c-2.9,0-5.2-2.3-5.2-5.2c0-2.9,2.3-5.2,5.2-5.2c2.9,0,5.2,2.3,5.2,5.2c0,0,0,0,0,0
			C342.2,248.2,339.9,250.6,337,250.6z M337,241.1c-2.3,0-4.2,1.9-4.2,4.2c0,2.3,1.9,4.2,4.2,4.2c2.3,0,4.2-1.9,4.2-4.2c0,0,0,0,0,0
			C341.2,243,339.3,241.1,337,241.1z"></path></g><path class="st2" d="M89.1,245.3h78.3c1.2,0,2.2,1,2.2,2.2v0.4c0,1.2-1,2.2-2.2,2.2H89.1c-1.2,0-2.2-1-2.2-2.2v-0.4
		C86.8,246.3,87.8,245.3,89.1,245.3z"></path><path class="st1" d="M167.4,250.6H89.1c-1.5,0-2.7-1.2-2.7-2.8v-0.4c0-1.5,1.2-2.7,2.7-2.7l0,0h78.3c1.5,0,2.7,1.2,2.8,2.7v0.4
		C170.1,249.4,168.9,250.6,167.4,250.6L167.4,250.6z M89.1,245.8c-1,0-1.7,0.8-1.7,1.7l0,0v0.4c0,1,0.8,1.7,1.7,1.7c0,0,0,0,0,0
		h78.3c1,0,1.8-0.8,1.8-1.8v-0.4c0-1-0.8-1.7-1.8-1.7H89.1z"></path><path class="st2" d="M89.1,264.1H213c1.2,0,2.2,1,2.2,2.2v0.4c0,1.2-1,2.2-2.2,2.2H89.1c-1.2,0-2.2-1-2.2-2.2v-0.4
		C86.8,265.2,87.8,264.1,89.1,264.1z"></path><path class="st1" d="M213,269.5H89.1c-1.5,0-2.7-1.2-2.7-2.8v-0.4c0-1.5,1.2-2.7,2.7-2.7H213c1.5,0,2.7,1.2,2.8,2.7v0.4
		C215.8,268.3,214.5,269.5,213,269.5L213,269.5z M89.1,264.6c-1,0-1.7,0.8-1.7,1.7v0.4c0,1,0.8,1.7,1.7,1.8H213c1,0,1.8-0.8,1.8-1.8
		v-0.4c0-1-0.8-1.7-1.7-1.7c0,0,0,0,0,0H89.1z"></path><path class="st2" d="M89.1,283H213c1.2,0,2.2,1,2.2,2.2v0.4c0,1.2-1,2.2-2.2,2.2H89.1c-1.2,0-2.2-1-2.2-2.2v-0.4
		C86.8,284,87.8,283,89.1,283z"></path><path class="st1" d="M213,288.4H89.1c-1.5,0-2.7-1.2-2.7-2.8v-0.4c0-1.5,1.2-2.7,2.7-2.8H213c1.5,0,2.8,1.2,2.8,2.8l0,0v0.4
		C215.8,287.2,214.5,288.4,213,288.4L213,288.4z M89.1,283.5c-1,0-1.7,0.8-1.7,1.8v0.4c0,1,0.8,1.7,1.7,1.8H213c1,0,1.8-0.8,1.8-1.8
		v-0.4c0-1-0.8-1.8-1.8-1.8H89.1z"></path><path class="st2" d="M89.1,301.9H213c1.2,0,2.2,1,2.2,2.2v0.4c0,1.2-1,2.2-2.2,2.2H89.1c-1.2,0-2.2-1-2.2-2.2v-0.4
		C86.8,302.9,87.8,301.9,89.1,301.9z"></path><path class="st1" d="M213,307.3H89.1c-1.5,0-2.7-1.2-2.7-2.7v-0.4c0-1.5,1.2-2.7,2.7-2.8H213c1.5,0,2.8,1.2,2.8,2.8l0,0v0.4
		C215.7,306,214.5,307.3,213,307.3z M89.1,302.4c-1,0-1.7,0.8-1.7,1.7c0,0,0,0,0,0v0.4c0,1,0.8,1.7,1.7,1.7H213c1,0,1.7-0.8,1.7-1.7
		c0,0,0,0,0,0v-0.4c0-1-0.8-1.8-1.8-1.8H89.1z"></path><path class="st0" d="M96.1,320.1H178c5.1,0,9.3,4.1,9.3,9.3v1.5c0,5.1-4.1,9.3-9.3,9.3H96.1c-5.1,0-9.3-4.1-9.3-9.3v-1.5
		C86.8,324.2,91,320.1,96.1,320.1z"></path><path class="st1" d="M178,340.6H96.1c-5.4,0-9.8-4.4-9.8-9.8v-1.5c0-5.4,4.4-9.8,9.8-9.8H178c5.4,0,9.8,4.4,9.8,9.8v1.5
		C187.8,336.2,183.4,340.6,178,340.6z M96.1,320.6c-4.8,0-8.8,3.9-8.8,8.8v1.5c0,4.8,3.9,8.8,8.8,8.8H178c4.8,0,8.8-3.9,8.8-8.8
		v-1.5c0-4.8-3.9-8.8-8.8-8.8H96.1z"></path><path class="st0" d="M300.9,352.3l1.1,2.2c0.1,0.3,0.4,0.5,0.7,0.5l2.4,0.3c0.5,0.1,0.9,0.7,0.8,1.2c0,0.2-0.1,0.3-0.2,0.4
		l-1.7,1.7c-0.2,0.2-0.3,0.5-0.3,0.9l0.4,2.4c0,0.6-0.4,1-0.9,1.1c-0.2,0-0.3,0-0.5-0.1l-2.1-1.1c-0.3-0.1-0.6-0.1-0.9,0l-2.1,1.1
		c-0.5,0.2-1.1,0-1.3-0.5c-0.1-0.1-0.1-0.3-0.1-0.5l0.4-2.4c0-0.3-0.1-0.6-0.3-0.9l-1.7-1.6c-0.4-0.4-0.3-1,0.1-1.4
		c0.1-0.1,0.3-0.2,0.4-0.2l2.4-0.3c0.3-0.1,0.6-0.2,0.7-0.5l1.1-2.2c0.3-0.5,0.9-0.7,1.4-0.4C300.7,352,300.8,352.1,300.9,352.3z"></path><path class="st0" d="M316.1,352.3l1.1,2.2c0.1,0.3,0.4,0.5,0.7,0.5l2.4,0.3c0.5,0.1,0.9,0.6,0.8,1.2c0,0.2-0.1,0.3-0.2,0.5
		l-1.7,1.7c-0.2,0.2-0.3,0.5-0.3,0.9l0.4,2.4c0,0.6-0.4,1-0.9,1.1c-0.2,0-0.3,0-0.5-0.1l-2.1-1.1c-0.3-0.1-0.6-0.1-0.9,0l-2.1,1.1
		c-0.5,0.2-1.1,0-1.3-0.5c-0.1-0.2-0.1-0.3-0.1-0.5l0.4-2.4c0-0.3-0.1-0.6-0.3-0.9l-1.7-1.6c-0.4-0.4-0.3-1,0.1-1.4
		c0.1-0.1,0.3-0.2,0.5-0.2l2.4-0.3c0.3-0.1,0.6-0.2,0.7-0.5l1.1-2.2c0.3-0.5,0.9-0.7,1.4-0.4C315.9,352,316,352.1,316.1,352.3z"></path><path class="st0" d="M331.3,352.3l1.1,2.2c0.1,0.3,0.4,0.5,0.7,0.5l2.4,0.3c0.5,0.1,0.9,0.6,0.8,1.2c0,0.2-0.1,0.4-0.3,0.5
		l-1.7,1.7c-0.2,0.2-0.3,0.5-0.3,0.9l0.4,2.4c0,0.6-0.4,1-0.9,1.1c-0.2,0-0.3,0-0.5-0.1l-2.1-1.1c-0.3-0.1-0.6-0.1-0.9,0l-2.1,1.1
		c-0.5,0.2-1.1,0-1.3-0.5c-0.1-0.1-0.1-0.3-0.1-0.5l0.4-2.4c0-0.3-0.1-0.6-0.3-0.9l-1.7-1.7c-0.4-0.4-0.3-1,0.1-1.4
		c0.1-0.1,0.3-0.2,0.4-0.2l2.4-0.3c0.3-0.1,0.6-0.2,0.7-0.5l1.1-2.2c0.3-0.5,0.9-0.7,1.4-0.4C331.1,352,331.2,352.1,331.3,352.3z"></path><path class="st0" d="M346.5,352.3l1.1,2.2c0.1,0.3,0.4,0.5,0.7,0.5l2.4,0.3c0.5,0.1,0.9,0.6,0.8,1.2c0,0.2-0.1,0.3-0.2,0.5
		l-1.7,1.7c-0.2,0.2-0.3,0.5-0.3,0.9l0.4,2.4c0,0.6-0.4,1-0.9,1.1c-0.2,0-0.3,0-0.5-0.1l-2.1-1.1c-0.3-0.1-0.6-0.1-0.9,0l-2.2,1.1
		c-0.5,0.2-1.1,0-1.3-0.5c-0.1-0.2-0.1-0.3-0.1-0.5l0.4-2.4c0.1-0.3,0-0.6-0.3-0.9L340,357c-0.4-0.4-0.3-1,0.1-1.4
		c0.1-0.1,0.3-0.2,0.5-0.2l2.5-0.4c0.3-0.1,0.6-0.2,0.7-0.5l1.1-2.2c0.3-0.5,0.9-0.6,1.4-0.3C346.3,352,346.4,352.1,346.5,352.3z"></path><path class="st0" d="M361.7,352.3l1.1,2.2c0.1,0.3,0.4,0.5,0.7,0.5l2.4,0.3c0.5,0.1,0.9,0.7,0.8,1.2c0,0.2-0.1,0.3-0.2,0.4
		l-1.7,1.7c-0.2,0.2-0.3,0.5-0.3,0.9l0.4,2.4c0,0.6-0.4,1-0.9,1.1c-0.2,0-0.3,0-0.5-0.1l-2.1-1.1c-0.3-0.1-0.6-0.1-0.9,0l-2.1,1.1
		c-0.5,0.2-1.1,0-1.3-0.5c-0.1-0.2-0.1-0.3-0.1-0.5l0.4-2.4c0-0.3-0.1-0.6-0.3-0.9l-1.7-1.6c-0.4-0.4-0.3-1,0.1-1.4
		c0.1-0.1,0.3-0.2,0.4-0.2l2.4-0.3c0.3-0.1,0.6-0.2,0.7-0.5l1.1-2.2c0.3-0.5,0.9-0.7,1.4-0.4C361.5,352,361.6,352.1,361.7,352.3z"></path><path class="st0" d="M300.9,352.3l1.1,2.2c0.1,0.3,0.4,0.5,0.7,0.5l2.4,0.3c0.5,0.1,0.9,0.7,0.8,1.2c0,0.2-0.1,0.3-0.2,0.4
		l-1.7,1.7c-0.2,0.2-0.3,0.5-0.3,0.9l0.4,2.4c0,0.6-0.4,1-0.9,1.1c-0.2,0-0.3,0-0.5-0.1l-2.1-1.1c-0.3-0.1-0.6-0.1-0.9,0l-2.1,1.1
		c-0.5,0.2-1.1,0-1.3-0.5c-0.1-0.1-0.1-0.3-0.1-0.5l0.4-2.4c0-0.3-0.1-0.6-0.3-0.9l-1.7-1.6c-0.4-0.4-0.3-1,0.1-1.4
		c0.1-0.1,0.3-0.2,0.4-0.2l2.4-0.3c0.3-0.1,0.6-0.2,0.7-0.5l1.1-2.2c0.3-0.5,0.9-0.7,1.4-0.4C300.7,352,300.8,352.1,300.9,352.3z"></path><path class="st0" d="M316.1,352.3l1.1,2.2c0.1,0.3,0.4,0.5,0.7,0.5l2.4,0.3c0.5,0.1,0.9,0.6,0.8,1.2c0,0.2-0.1,0.3-0.2,0.5
		l-1.7,1.7c-0.2,0.2-0.3,0.5-0.3,0.9l0.4,2.4c0,0.6-0.4,1-0.9,1.1c-0.2,0-0.3,0-0.5-0.1l-2.1-1.1c-0.3-0.1-0.6-0.1-0.9,0l-2.1,1.1
		c-0.5,0.2-1.1,0-1.3-0.5c-0.1-0.2-0.1-0.3-0.1-0.5l0.4-2.4c0-0.3-0.1-0.6-0.3-0.9l-1.7-1.6c-0.4-0.4-0.3-1,0.1-1.4
		c0.1-0.1,0.3-0.2,0.5-0.2l2.4-0.3c0.3-0.1,0.6-0.2,0.7-0.5l1.1-2.2c0.3-0.5,0.9-0.7,1.4-0.4C315.9,352,316,352.1,316.1,352.3z"></path><path class="st0" d="M331.3,352.3l1.1,2.2c0.1,0.3,0.4,0.5,0.7,0.5l2.4,0.3c0.5,0.1,0.9,0.6,0.8,1.2c0,0.2-0.1,0.4-0.3,0.5
		l-1.7,1.7c-0.2,0.2-0.3,0.5-0.3,0.9l0.4,2.4c0,0.6-0.4,1-0.9,1.1c-0.2,0-0.3,0-0.5-0.1l-2.1-1.1c-0.3-0.1-0.6-0.1-0.9,0l-2.1,1.1
		c-0.5,0.2-1.1,0-1.3-0.5c-0.1-0.1-0.1-0.3-0.1-0.5l0.4-2.4c0-0.3-0.1-0.6-0.3-0.9l-1.7-1.7c-0.4-0.4-0.3-1,0.1-1.4
		c0.1-0.1,0.3-0.2,0.4-0.2l2.4-0.3c0.3-0.1,0.6-0.2,0.7-0.5l1.1-2.2c0.3-0.5,0.9-0.7,1.4-0.4C331.1,352,331.2,352.1,331.3,352.3z"></path><path class="st0" d="M346.5,352.3l1.1,2.2c0.1,0.3,0.4,0.5,0.7,0.5l2.4,0.3c0.5,0.1,0.9,0.6,0.8,1.2c0,0.2-0.1,0.3-0.2,0.5
		l-1.7,1.7c-0.2,0.2-0.3,0.5-0.3,0.9l0.4,2.4c0,0.6-0.4,1-0.9,1.1c-0.2,0-0.3,0-0.5-0.1l-2.1-1.1c-0.3-0.1-0.6-0.1-0.9,0l-2.2,1.1
		c-0.5,0.2-1.1,0-1.3-0.5c-0.1-0.2-0.1-0.3-0.1-0.5l0.4-2.4c0.1-0.3,0-0.6-0.3-0.9L340,357c-0.4-0.4-0.3-1,0.1-1.4
		c0.1-0.1,0.3-0.2,0.5-0.2l2.5-0.4c0.3-0.1,0.6-0.2,0.7-0.5l1.1-2.2c0.3-0.5,0.9-0.6,1.4-0.3C346.3,352,346.4,352.1,346.5,352.3z"></path><path class="st0" d="M361.7,352.3l1.1,2.2c0.1,0.3,0.4,0.5,0.7,0.5l2.4,0.3c0.5,0.1,0.9,0.7,0.8,1.2c0,0.2-0.1,0.3-0.2,0.4
		l-1.7,1.7c-0.2,0.2-0.3,0.5-0.3,0.9l0.4,2.4c0,0.6-0.4,1-0.9,1.1c-0.2,0-0.3,0-0.5-0.1l-2.1-1.1c-0.3-0.1-0.6-0.1-0.9,0l-2.1,1.1
		c-0.5,0.2-1.1,0-1.3-0.5c-0.1-0.2-0.1-0.3-0.1-0.5l0.4-2.4c0-0.3-0.1-0.6-0.3-0.9l-1.7-1.6c-0.4-0.4-0.3-1,0.1-1.4
		c0.1-0.1,0.3-0.2,0.4-0.2l2.4-0.3c0.3-0.1,0.6-0.2,0.7-0.5l1.1-2.2c0.3-0.5,0.9-0.7,1.4-0.4C361.5,352,361.6,352.1,361.7,352.3z"></path><path class="st0" d="M90.8,185.1h25.6c2.2,0,4,1.8,4,4v25.6c0,2.2-1.8,4-4,4H90.8c-2.2,0-4-1.8-4-4v-25.6
		C86.8,186.9,88.6,185.1,90.8,185.1z"></path><path class="st1" d="M116.5,219.2H90.8c-2.5,0-4.5-2-4.5-4.5v-25.6c0-2.5,2-4.5,4.5-4.5h25.6c2.5,0,4.5,2,4.5,4.5v25.6
		C121,217.2,119,219.2,116.5,219.2C116.5,219.2,116.5,219.2,116.5,219.2z M90.8,185.6c-1.9,0-3.5,1.6-3.5,3.5v25.6
		c0,1.9,1.6,3.5,3.5,3.5h25.6c1.9,0,3.5-1.5,3.5-3.5c0,0,0,0,0,0v-25.6c0-1.9-1.6-3.5-3.5-3.5H90.8z"></path><path class="st1" d="M159.1,197.1h-29.2c-0.3,0-0.5-0.2-0.5-0.5s0.2-0.5,0.5-0.5h29.2c0.3,0,0.5,0.2,0.5,0.5
		C159.6,196.9,159.4,197.1,159.1,197.1z"></path><path class="st1" d="M204.6,207.7h-74.6c-0.3,0-0.5-0.2-0.5-0.5s0.2-0.5,0.5-0.5h74.6c0.3,0,0.5,0.2,0.5,0.5
		S204.8,207.7,204.6,207.7z"></path></g></svg>